<mxfile host="app.diagrams.net" modified="2024-05-16T09:53:14.114Z" agent="Mozilla/5.0 (Windows NT 10.0; Win64; x64) AppleWebKit/537.36 (KHTML, like Gecko) Chrome/123.0.0.0 Safari/537.36 OPR/109.0.0.0 (Edition std-1)" etag="Sn5ObFepW8FEZFuVfkjI" version="24.4.2" type="device">
  <diagram id="C5RBs43oDa-KdzZeNtuy" name="Page-1">
    <mxGraphModel dx="1921" dy="928" grid="1" gridSize="10" guides="1" tooltips="1" connect="1" arrows="1" fold="1" page="1" pageScale="1" pageWidth="827" pageHeight="1169" math="0" shadow="0">
      <root>
        <mxCell id="WIyWlLk6GJQsqaUBKTNV-0" />
        <mxCell id="WIyWlLk6GJQsqaUBKTNV-1" parent="WIyWlLk6GJQsqaUBKTNV-0" />
        <mxCell id="zkfFHV4jXpPFQw0GAbJ--0" value="User Management &#xa;Subsystem" style="swimlane;fontStyle=2;align=center;verticalAlign=top;childLayout=stackLayout;horizontal=1;startSize=60;horizontalStack=0;resizeParent=1;resizeLast=0;collapsible=1;marginBottom=0;rounded=0;shadow=0;strokeWidth=1;" parent="WIyWlLk6GJQsqaUBKTNV-1" vertex="1">
          <mxGeometry y="465" width="130" height="80" as="geometry">
            <mxRectangle x="230" y="140" width="160" height="26" as="alternateBounds" />
          </mxGeometry>
        </mxCell>
        <mxCell id="zkfFHV4jXpPFQw0GAbJ--6" value="Community&#xa;Engagement&#xa;Subsystem" style="swimlane;fontStyle=0;align=center;verticalAlign=top;childLayout=stackLayout;horizontal=1;startSize=60;horizontalStack=0;resizeParent=1;resizeLast=0;collapsible=1;marginBottom=0;rounded=0;shadow=0;strokeWidth=1;" parent="WIyWlLk6GJQsqaUBKTNV-1" vertex="1">
          <mxGeometry x="720" y="210" width="130" height="80" as="geometry">
            <mxRectangle x="130" y="380" width="160" height="26" as="alternateBounds" />
          </mxGeometry>
        </mxCell>
        <mxCell id="zkfFHV4jXpPFQw0GAbJ--13" value="Content Management&#xa;Subsystem    " style="swimlane;fontStyle=0;align=center;verticalAlign=top;childLayout=stackLayout;horizontal=1;startSize=60;horizontalStack=0;resizeParent=1;resizeLast=0;collapsible=1;marginBottom=0;rounded=0;shadow=0;strokeWidth=1;" parent="WIyWlLk6GJQsqaUBKTNV-1" vertex="1">
          <mxGeometry x="349" y="20" width="130" height="80" as="geometry">
            <mxRectangle x="280" y="120" width="170" height="26" as="alternateBounds" />
          </mxGeometry>
        </mxCell>
        <mxCell id="zkfFHV4jXpPFQw0GAbJ--17" value="Infrastructure&#xa;Management&#xa;Subsystem" style="swimlane;fontStyle=0;align=center;verticalAlign=top;childLayout=stackLayout;horizontal=1;startSize=60;horizontalStack=0;resizeParent=1;resizeLast=0;collapsible=1;marginBottom=0;rounded=0;shadow=0;strokeWidth=1;" parent="WIyWlLk6GJQsqaUBKTNV-1" vertex="1">
          <mxGeometry y="210" width="130" height="80" as="geometry">
            <mxRectangle x="550" y="140" width="160" height="26" as="alternateBounds" />
          </mxGeometry>
        </mxCell>
        <mxCell id="QJG5FulogUUSZnAcrw5h-1" value="Support&#xa;Management&#xa;Subsystem" style="swimlane;fontStyle=0;align=center;verticalAlign=top;childLayout=stackLayout;horizontal=1;startSize=60;horizontalStack=0;resizeParent=1;resizeLast=0;collapsible=1;marginBottom=0;rounded=0;shadow=0;strokeWidth=1;" vertex="1" parent="WIyWlLk6GJQsqaUBKTNV-1">
          <mxGeometry x="700" y="465" width="130" height="80" as="geometry">
            <mxRectangle x="130" y="380" width="160" height="26" as="alternateBounds" />
          </mxGeometry>
        </mxCell>
        <mxCell id="QJG5FulogUUSZnAcrw5h-8" value="Advertising&#xa;Management&#xa;Subsystem" style="swimlane;fontStyle=0;align=center;verticalAlign=top;childLayout=stackLayout;horizontal=1;startSize=60;horizontalStack=0;resizeParent=1;resizeLast=0;collapsible=1;marginBottom=0;rounded=0;shadow=0;strokeWidth=1;" vertex="1" parent="WIyWlLk6GJQsqaUBKTNV-1">
          <mxGeometry x="349" y="760" width="127" height="80" as="geometry">
            <mxRectangle x="130" y="380" width="160" height="26" as="alternateBounds" />
          </mxGeometry>
        </mxCell>
        <mxCell id="QJG5FulogUUSZnAcrw5h-48" style="edgeStyle=orthogonalEdgeStyle;rounded=0;orthogonalLoop=1;jettySize=auto;html=1;entryX=1;entryY=0.5;entryDx=0;entryDy=0;" edge="1" parent="WIyWlLk6GJQsqaUBKTNV-1" source="QJG5FulogUUSZnAcrw5h-15" target="zkfFHV4jXpPFQw0GAbJ--0">
          <mxGeometry relative="1" as="geometry" />
        </mxCell>
        <mxCell id="QJG5FulogUUSZnAcrw5h-15" value="&lt;p style=&quot;margin: 4px 0px 0px;&quot;&gt;Authenticator&lt;/p&gt;" style="verticalAlign=top;align=center;overflow=fill;html=1;whiteSpace=wrap;" vertex="1" parent="WIyWlLk6GJQsqaUBKTNV-1">
          <mxGeometry x="160" y="490" width="90" height="30" as="geometry" />
        </mxCell>
        <mxCell id="QJG5FulogUUSZnAcrw5h-49" style="edgeStyle=orthogonalEdgeStyle;rounded=0;orthogonalLoop=1;jettySize=auto;html=1;entryX=0.75;entryY=1;entryDx=0;entryDy=0;" edge="1" parent="WIyWlLk6GJQsqaUBKTNV-1" source="QJG5FulogUUSZnAcrw5h-16" target="zkfFHV4jXpPFQw0GAbJ--0">
          <mxGeometry relative="1" as="geometry">
            <mxPoint x="100" y="550" as="targetPoint" />
            <Array as="points">
              <mxPoint x="98" y="580" />
              <mxPoint x="98" y="565" />
              <mxPoint x="98" y="565" />
            </Array>
          </mxGeometry>
        </mxCell>
        <mxCell id="QJG5FulogUUSZnAcrw5h-16" value="&lt;p style=&quot;margin: 4px 0px 0px;&quot;&gt;User&lt;/p&gt;" style="verticalAlign=top;align=center;overflow=fill;html=1;whiteSpace=wrap;" vertex="1" parent="WIyWlLk6GJQsqaUBKTNV-1">
          <mxGeometry x="130" y="570" width="60" height="30" as="geometry" />
        </mxCell>
        <mxCell id="QJG5FulogUUSZnAcrw5h-43" style="edgeStyle=orthogonalEdgeStyle;rounded=0;orthogonalLoop=1;jettySize=auto;html=1;" edge="1" parent="WIyWlLk6GJQsqaUBKTNV-1" source="QJG5FulogUUSZnAcrw5h-17">
          <mxGeometry relative="1" as="geometry">
            <mxPoint x="110" y="290" as="targetPoint" />
          </mxGeometry>
        </mxCell>
        <mxCell id="QJG5FulogUUSZnAcrw5h-17" value="&lt;p style=&quot;margin: 4px 0px 0px;&quot;&gt;Database&lt;/p&gt;" style="verticalAlign=top;align=center;overflow=fill;html=1;whiteSpace=wrap;" vertex="1" parent="WIyWlLk6GJQsqaUBKTNV-1">
          <mxGeometry x="130" y="310" width="90" height="30" as="geometry" />
        </mxCell>
        <mxCell id="QJG5FulogUUSZnAcrw5h-18" value="&lt;p style=&quot;margin: 4px 0px 0px;&quot;&gt;Session&lt;/p&gt;&lt;p style=&quot;margin: 4px 0px 0px;&quot;&gt;Handling&lt;/p&gt;" style="verticalAlign=top;align=center;overflow=fill;html=1;whiteSpace=wrap;" vertex="1" parent="WIyWlLk6GJQsqaUBKTNV-1">
          <mxGeometry x="160" y="220" width="90" height="40" as="geometry" />
        </mxCell>
        <mxCell id="QJG5FulogUUSZnAcrw5h-19" value="&lt;p style=&quot;margin: 4px 0px 0px;&quot;&gt;Video&lt;/p&gt;" style="verticalAlign=top;align=center;overflow=fill;html=1;whiteSpace=wrap;" vertex="1" parent="WIyWlLk6GJQsqaUBKTNV-1">
          <mxGeometry x="215" y="60" width="90" height="30" as="geometry" />
        </mxCell>
        <mxCell id="QJG5FulogUUSZnAcrw5h-21" value="&lt;p style=&quot;margin: 4px 0px 0px;&quot;&gt;Live Streaming&lt;/p&gt;" style="verticalAlign=top;align=center;overflow=fill;html=1;whiteSpace=wrap;" vertex="1" parent="WIyWlLk6GJQsqaUBKTNV-1">
          <mxGeometry x="510" y="60" width="100" height="30" as="geometry" />
        </mxCell>
        <mxCell id="QJG5FulogUUSZnAcrw5h-41" style="edgeStyle=orthogonalEdgeStyle;rounded=0;orthogonalLoop=1;jettySize=auto;html=1;" edge="1" parent="WIyWlLk6GJQsqaUBKTNV-1" source="QJG5FulogUUSZnAcrw5h-22">
          <mxGeometry relative="1" as="geometry">
            <mxPoint x="475" y="100" as="targetPoint" />
          </mxGeometry>
        </mxCell>
        <mxCell id="QJG5FulogUUSZnAcrw5h-22" value="&lt;p style=&quot;margin: 4px 0px 0px;&quot;&gt;Algorithm&lt;/p&gt;" style="verticalAlign=top;align=center;overflow=fill;html=1;whiteSpace=wrap;" vertex="1" parent="WIyWlLk6GJQsqaUBKTNV-1">
          <mxGeometry x="430" y="140" width="90" height="30" as="geometry" />
        </mxCell>
        <mxCell id="QJG5FulogUUSZnAcrw5h-39" style="edgeStyle=orthogonalEdgeStyle;rounded=0;orthogonalLoop=1;jettySize=auto;html=1;" edge="1" parent="WIyWlLk6GJQsqaUBKTNV-1" source="QJG5FulogUUSZnAcrw5h-23">
          <mxGeometry relative="1" as="geometry">
            <mxPoint x="355" y="100" as="targetPoint" />
          </mxGeometry>
        </mxCell>
        <mxCell id="QJG5FulogUUSZnAcrw5h-23" value="&lt;p style=&quot;margin: 4px 0px 0px;&quot;&gt;Analytics&lt;/p&gt;" style="verticalAlign=top;align=center;overflow=fill;html=1;whiteSpace=wrap;" vertex="1" parent="WIyWlLk6GJQsqaUBKTNV-1">
          <mxGeometry x="310" y="130" width="90" height="30" as="geometry" />
        </mxCell>
        <mxCell id="QJG5FulogUUSZnAcrw5h-45" style="edgeStyle=orthogonalEdgeStyle;rounded=0;orthogonalLoop=1;jettySize=auto;html=1;entryX=0.001;entryY=0.383;entryDx=0;entryDy=0;entryPerimeter=0;" edge="1" parent="WIyWlLk6GJQsqaUBKTNV-1" source="QJG5FulogUUSZnAcrw5h-24" target="zkfFHV4jXpPFQw0GAbJ--6">
          <mxGeometry relative="1" as="geometry">
            <mxPoint x="700" y="240" as="targetPoint" />
          </mxGeometry>
        </mxCell>
        <mxCell id="QJG5FulogUUSZnAcrw5h-24" value="&lt;p style=&quot;margin: 4px 0px 0px;&quot;&gt;Video&lt;/p&gt;&lt;p style=&quot;margin: 4px 0px 0px;&quot;&gt;Interaction&lt;/p&gt;" style="verticalAlign=top;align=center;overflow=fill;html=1;whiteSpace=wrap;" vertex="1" parent="WIyWlLk6GJQsqaUBKTNV-1">
          <mxGeometry x="610" y="220" width="90" height="40" as="geometry" />
        </mxCell>
        <mxCell id="QJG5FulogUUSZnAcrw5h-47" style="edgeStyle=orthogonalEdgeStyle;rounded=0;orthogonalLoop=1;jettySize=auto;html=1;" edge="1" parent="WIyWlLk6GJQsqaUBKTNV-1" source="QJG5FulogUUSZnAcrw5h-25">
          <mxGeometry relative="1" as="geometry">
            <mxPoint x="775" y="290" as="targetPoint" />
          </mxGeometry>
        </mxCell>
        <mxCell id="QJG5FulogUUSZnAcrw5h-25" value="&lt;p style=&quot;margin: 4px 0px 0px;&quot;&gt;User&lt;/p&gt;&lt;p style=&quot;margin: 4px 0px 0px;&quot;&gt;Interaction&lt;/p&gt;" style="verticalAlign=top;align=center;overflow=fill;html=1;whiteSpace=wrap;" vertex="1" parent="WIyWlLk6GJQsqaUBKTNV-1">
          <mxGeometry x="730" y="340" width="90" height="40" as="geometry" />
        </mxCell>
        <mxCell id="QJG5FulogUUSZnAcrw5h-26" value="&lt;p style=&quot;margin: 4px 0px 0px;&quot;&gt;Development&lt;/p&gt;" style="verticalAlign=top;align=center;overflow=fill;html=1;whiteSpace=wrap;" vertex="1" parent="WIyWlLk6GJQsqaUBKTNV-1">
          <mxGeometry x="580" y="435" width="90" height="30" as="geometry" />
        </mxCell>
        <mxCell id="QJG5FulogUUSZnAcrw5h-53" style="edgeStyle=orthogonalEdgeStyle;rounded=0;orthogonalLoop=1;jettySize=auto;html=1;exitX=1;exitY=0.5;exitDx=0;exitDy=0;entryX=0;entryY=0.5;entryDx=0;entryDy=0;" edge="1" parent="WIyWlLk6GJQsqaUBKTNV-1" source="QJG5FulogUUSZnAcrw5h-27" target="QJG5FulogUUSZnAcrw5h-1">
          <mxGeometry relative="1" as="geometry" />
        </mxCell>
        <mxCell id="QJG5FulogUUSZnAcrw5h-27" value="&lt;p style=&quot;margin: 4px 0px 0px;&quot;&gt;Maintenance&lt;/p&gt;" style="verticalAlign=top;align=center;overflow=fill;html=1;whiteSpace=wrap;" vertex="1" parent="WIyWlLk6GJQsqaUBKTNV-1">
          <mxGeometry x="580" y="490" width="90" height="30" as="geometry" />
        </mxCell>
        <mxCell id="QJG5FulogUUSZnAcrw5h-55" style="edgeStyle=orthogonalEdgeStyle;rounded=0;orthogonalLoop=1;jettySize=auto;html=1;exitX=1;exitY=0.5;exitDx=0;exitDy=0;" edge="1" parent="WIyWlLk6GJQsqaUBKTNV-1" source="QJG5FulogUUSZnAcrw5h-28">
          <mxGeometry relative="1" as="geometry">
            <mxPoint x="723" y="545" as="targetPoint" />
            <Array as="points">
              <mxPoint x="723" y="560" />
            </Array>
          </mxGeometry>
        </mxCell>
        <mxCell id="QJG5FulogUUSZnAcrw5h-28" value="&lt;p style=&quot;margin: 4px 0px 0px;&quot;&gt;Admin&lt;/p&gt;" style="verticalAlign=top;align=center;overflow=fill;html=1;whiteSpace=wrap;" vertex="1" parent="WIyWlLk6GJQsqaUBKTNV-1">
          <mxGeometry x="580" y="545" width="90" height="30" as="geometry" />
        </mxCell>
        <mxCell id="QJG5FulogUUSZnAcrw5h-29" value="&lt;p style=&quot;margin: 4px 0px 0px;&quot;&gt;Partnership/&lt;/p&gt;&lt;p style=&quot;margin: 4px 0px 0px;&quot;&gt;Monetisation&lt;/p&gt;" style="verticalAlign=top;align=center;overflow=fill;html=1;whiteSpace=wrap;" vertex="1" parent="WIyWlLk6GJQsqaUBKTNV-1">
          <mxGeometry x="430" y="680" width="90" height="40" as="geometry" />
        </mxCell>
        <mxCell id="QJG5FulogUUSZnAcrw5h-30" value="&lt;p style=&quot;margin: 4px 0px 0px;&quot;&gt;Advertising&lt;/p&gt;&lt;p style=&quot;margin: 4px 0px 0px;&quot;&gt;Campaign&lt;/p&gt;" style="verticalAlign=top;align=center;overflow=fill;html=1;whiteSpace=wrap;" vertex="1" parent="WIyWlLk6GJQsqaUBKTNV-1">
          <mxGeometry x="305" y="680" width="90" height="40" as="geometry" />
        </mxCell>
        <mxCell id="QJG5FulogUUSZnAcrw5h-37" style="edgeStyle=orthogonalEdgeStyle;rounded=0;orthogonalLoop=1;jettySize=auto;html=1;entryX=0.007;entryY=0.691;entryDx=0;entryDy=0;entryPerimeter=0;" edge="1" parent="WIyWlLk6GJQsqaUBKTNV-1" source="QJG5FulogUUSZnAcrw5h-19" target="zkfFHV4jXpPFQw0GAbJ--13">
          <mxGeometry relative="1" as="geometry" />
        </mxCell>
        <mxCell id="QJG5FulogUUSZnAcrw5h-38" style="edgeStyle=orthogonalEdgeStyle;rounded=0;orthogonalLoop=1;jettySize=auto;html=1;entryX=1.008;entryY=0.688;entryDx=0;entryDy=0;entryPerimeter=0;" edge="1" parent="WIyWlLk6GJQsqaUBKTNV-1" source="QJG5FulogUUSZnAcrw5h-21" target="zkfFHV4jXpPFQw0GAbJ--13">
          <mxGeometry relative="1" as="geometry" />
        </mxCell>
        <mxCell id="QJG5FulogUUSZnAcrw5h-42" style="edgeStyle=orthogonalEdgeStyle;rounded=0;orthogonalLoop=1;jettySize=auto;html=1;entryX=0.994;entryY=0.368;entryDx=0;entryDy=0;entryPerimeter=0;" edge="1" parent="WIyWlLk6GJQsqaUBKTNV-1" source="QJG5FulogUUSZnAcrw5h-18" target="zkfFHV4jXpPFQw0GAbJ--17">
          <mxGeometry relative="1" as="geometry" />
        </mxCell>
        <mxCell id="QJG5FulogUUSZnAcrw5h-50" style="edgeStyle=orthogonalEdgeStyle;rounded=0;orthogonalLoop=1;jettySize=auto;html=1;exitX=0.25;exitY=1;exitDx=0;exitDy=0;entryX=0.803;entryY=-0.011;entryDx=0;entryDy=0;entryPerimeter=0;" edge="1" parent="WIyWlLk6GJQsqaUBKTNV-1" source="QJG5FulogUUSZnAcrw5h-29" target="QJG5FulogUUSZnAcrw5h-8">
          <mxGeometry relative="1" as="geometry" />
        </mxCell>
        <mxCell id="QJG5FulogUUSZnAcrw5h-51" style="edgeStyle=orthogonalEdgeStyle;rounded=0;orthogonalLoop=1;jettySize=auto;html=1;exitX=0.75;exitY=1;exitDx=0;exitDy=0;entryX=0.186;entryY=0.031;entryDx=0;entryDy=0;entryPerimeter=0;" edge="1" parent="WIyWlLk6GJQsqaUBKTNV-1" source="QJG5FulogUUSZnAcrw5h-30" target="QJG5FulogUUSZnAcrw5h-8">
          <mxGeometry relative="1" as="geometry" />
        </mxCell>
        <mxCell id="QJG5FulogUUSZnAcrw5h-52" style="edgeStyle=orthogonalEdgeStyle;rounded=0;orthogonalLoop=1;jettySize=auto;html=1;exitX=1;exitY=0.5;exitDx=0;exitDy=0;" edge="1" parent="WIyWlLk6GJQsqaUBKTNV-1" source="QJG5FulogUUSZnAcrw5h-26">
          <mxGeometry relative="1" as="geometry">
            <mxPoint x="719" y="464" as="targetPoint" />
            <Array as="points">
              <mxPoint x="719" y="450" />
            </Array>
          </mxGeometry>
        </mxCell>
        <mxCell id="QJG5FulogUUSZnAcrw5h-56" value="" style="endArrow=none;html=1;edgeStyle=orthogonalEdgeStyle;rounded=0;exitX=0;exitY=1;exitDx=0;exitDy=0;entryX=0.5;entryY=0;entryDx=0;entryDy=0;" edge="1" parent="WIyWlLk6GJQsqaUBKTNV-1" source="QJG5FulogUUSZnAcrw5h-15" target="QJG5FulogUUSZnAcrw5h-16">
          <mxGeometry relative="1" as="geometry">
            <mxPoint x="189" y="550" as="sourcePoint" />
            <mxPoint x="349" y="550" as="targetPoint" />
          </mxGeometry>
        </mxCell>
        <mxCell id="QJG5FulogUUSZnAcrw5h-59" value="1..*" style="text;html=1;align=center;verticalAlign=middle;resizable=0;points=[];autosize=1;strokeColor=none;fillColor=none;" vertex="1" parent="WIyWlLk6GJQsqaUBKTNV-1">
          <mxGeometry x="130" y="545" width="40" height="30" as="geometry" />
        </mxCell>
        <mxCell id="QJG5FulogUUSZnAcrw5h-60" value="1" style="text;html=1;align=center;verticalAlign=middle;resizable=0;points=[];autosize=1;strokeColor=none;fillColor=none;" vertex="1" parent="WIyWlLk6GJQsqaUBKTNV-1">
          <mxGeometry x="150" y="515" width="30" height="30" as="geometry" />
        </mxCell>
        <mxCell id="QJG5FulogUUSZnAcrw5h-61" value="" style="endArrow=none;html=1;edgeStyle=orthogonalEdgeStyle;rounded=0;exitX=0.994;exitY=0.389;exitDx=0;exitDy=0;entryX=1;entryY=1;entryDx=0;entryDy=0;exitPerimeter=0;" edge="1" parent="WIyWlLk6GJQsqaUBKTNV-1" source="QJG5FulogUUSZnAcrw5h-16" target="QJG5FulogUUSZnAcrw5h-19">
          <mxGeometry relative="1" as="geometry">
            <mxPoint x="150" y="430" as="sourcePoint" />
            <mxPoint x="310" y="430" as="targetPoint" />
            <Array as="points">
              <mxPoint x="305" y="582" />
            </Array>
          </mxGeometry>
        </mxCell>
        <mxCell id="QJG5FulogUUSZnAcrw5h-62" value="0..*" style="edgeLabel;resizable=0;html=1;align=left;verticalAlign=bottom;" connectable="0" vertex="1" parent="QJG5FulogUUSZnAcrw5h-61">
          <mxGeometry x="-1" relative="1" as="geometry">
            <mxPoint x="-10" y="-12" as="offset" />
          </mxGeometry>
        </mxCell>
        <mxCell id="QJG5FulogUUSZnAcrw5h-63" value="0..*" style="edgeLabel;resizable=0;html=1;align=right;verticalAlign=bottom;" connectable="0" vertex="1" parent="QJG5FulogUUSZnAcrw5h-61">
          <mxGeometry x="1" relative="1" as="geometry">
            <mxPoint x="-15" y="20" as="offset" />
          </mxGeometry>
        </mxCell>
        <mxCell id="QJG5FulogUUSZnAcrw5h-66" value="" style="endArrow=none;html=1;edgeStyle=orthogonalEdgeStyle;rounded=0;exitX=1;exitY=1;exitDx=0;exitDy=0;entryX=0.307;entryY=1.011;entryDx=0;entryDy=0;entryPerimeter=0;" edge="1" parent="WIyWlLk6GJQsqaUBKTNV-1" source="QJG5FulogUUSZnAcrw5h-16" target="QJG5FulogUUSZnAcrw5h-21">
          <mxGeometry relative="1" as="geometry">
            <mxPoint x="200" y="595" as="sourcePoint" />
            <mxPoint x="315" y="100" as="targetPoint" />
            <Array as="points">
              <mxPoint x="190" y="610" />
              <mxPoint x="541" y="610" />
            </Array>
          </mxGeometry>
        </mxCell>
        <mxCell id="QJG5FulogUUSZnAcrw5h-67" value="0..*" style="edgeLabel;resizable=0;html=1;align=left;verticalAlign=bottom;" connectable="0" vertex="1" parent="QJG5FulogUUSZnAcrw5h-66">
          <mxGeometry x="-1" relative="1" as="geometry">
            <mxPoint y="20" as="offset" />
          </mxGeometry>
        </mxCell>
        <mxCell id="QJG5FulogUUSZnAcrw5h-68" value="0..*" style="edgeLabel;resizable=0;html=1;align=right;verticalAlign=bottom;" connectable="0" vertex="1" parent="QJG5FulogUUSZnAcrw5h-66">
          <mxGeometry x="1" relative="1" as="geometry">
            <mxPoint x="-1" y="20" as="offset" />
          </mxGeometry>
        </mxCell>
        <mxCell id="QJG5FulogUUSZnAcrw5h-69" value="" style="endArrow=none;html=1;edgeStyle=orthogonalEdgeStyle;rounded=0;exitX=1.011;exitY=0.889;exitDx=0;exitDy=0;entryX=0.604;entryY=1.039;entryDx=0;entryDy=0;entryPerimeter=0;exitPerimeter=0;" edge="1" parent="WIyWlLk6GJQsqaUBKTNV-1" source="QJG5FulogUUSZnAcrw5h-16" target="QJG5FulogUUSZnAcrw5h-22">
          <mxGeometry relative="1" as="geometry">
            <mxPoint x="200" y="588" as="sourcePoint" />
            <mxPoint x="315" y="100" as="targetPoint" />
          </mxGeometry>
        </mxCell>
        <mxCell id="QJG5FulogUUSZnAcrw5h-70" value="0..*" style="edgeLabel;resizable=0;html=1;align=left;verticalAlign=bottom;" connectable="0" vertex="1" parent="QJG5FulogUUSZnAcrw5h-69">
          <mxGeometry x="-1" relative="1" as="geometry">
            <mxPoint y="3" as="offset" />
          </mxGeometry>
        </mxCell>
        <mxCell id="QJG5FulogUUSZnAcrw5h-71" value="1" style="edgeLabel;resizable=0;html=1;align=right;verticalAlign=bottom;" connectable="0" vertex="1" parent="QJG5FulogUUSZnAcrw5h-69">
          <mxGeometry x="1" relative="1" as="geometry">
            <mxPoint x="6" y="9" as="offset" />
          </mxGeometry>
        </mxCell>
        <mxCell id="QJG5FulogUUSZnAcrw5h-72" value="" style="endArrow=none;html=1;edgeStyle=orthogonalEdgeStyle;rounded=0;exitX=0.5;exitY=1;exitDx=0;exitDy=0;entryX=0.5;entryY=1;entryDx=0;entryDy=0;" edge="1" parent="WIyWlLk6GJQsqaUBKTNV-1" source="QJG5FulogUUSZnAcrw5h-16" target="QJG5FulogUUSZnAcrw5h-28">
          <mxGeometry relative="1" as="geometry">
            <mxPoint x="200" y="610" as="sourcePoint" />
            <mxPoint x="551" y="100" as="targetPoint" />
            <Array as="points">
              <mxPoint x="160" y="630" />
              <mxPoint x="625" y="630" />
            </Array>
          </mxGeometry>
        </mxCell>
        <mxCell id="QJG5FulogUUSZnAcrw5h-73" value="1..*" style="edgeLabel;resizable=0;html=1;align=left;verticalAlign=bottom;" connectable="0" vertex="1" parent="QJG5FulogUUSZnAcrw5h-72">
          <mxGeometry x="-1" relative="1" as="geometry">
            <mxPoint y="20" as="offset" />
          </mxGeometry>
        </mxCell>
        <mxCell id="QJG5FulogUUSZnAcrw5h-74" value="1..*" style="edgeLabel;resizable=0;html=1;align=right;verticalAlign=bottom;" connectable="0" vertex="1" parent="QJG5FulogUUSZnAcrw5h-72">
          <mxGeometry x="1" relative="1" as="geometry">
            <mxPoint x="15" y="20" as="offset" />
          </mxGeometry>
        </mxCell>
        <mxCell id="QJG5FulogUUSZnAcrw5h-75" value="" style="endArrow=none;html=1;edgeStyle=orthogonalEdgeStyle;rounded=0;exitX=0.25;exitY=1;exitDx=0;exitDy=0;entryX=0.5;entryY=0;entryDx=0;entryDy=0;" edge="1" parent="WIyWlLk6GJQsqaUBKTNV-1" source="QJG5FulogUUSZnAcrw5h-16" target="QJG5FulogUUSZnAcrw5h-29">
          <mxGeometry relative="1" as="geometry">
            <mxPoint x="170" y="610" as="sourcePoint" />
            <mxPoint x="635" y="585" as="targetPoint" />
            <Array as="points">
              <mxPoint x="145" y="640" />
              <mxPoint x="475" y="640" />
            </Array>
          </mxGeometry>
        </mxCell>
        <mxCell id="QJG5FulogUUSZnAcrw5h-76" value="0..*" style="edgeLabel;resizable=0;html=1;align=left;verticalAlign=bottom;" connectable="0" vertex="1" parent="QJG5FulogUUSZnAcrw5h-75">
          <mxGeometry x="-1" relative="1" as="geometry">
            <mxPoint x="-25" y="30" as="offset" />
          </mxGeometry>
        </mxCell>
        <mxCell id="QJG5FulogUUSZnAcrw5h-77" value="0..1" style="edgeLabel;resizable=0;html=1;align=right;verticalAlign=bottom;" connectable="0" vertex="1" parent="QJG5FulogUUSZnAcrw5h-75">
          <mxGeometry x="1" relative="1" as="geometry">
            <mxPoint x="5" as="offset" />
          </mxGeometry>
        </mxCell>
        <mxCell id="QJG5FulogUUSZnAcrw5h-79" value="" style="endArrow=none;html=1;edgeStyle=orthogonalEdgeStyle;rounded=0;exitX=0;exitY=0.75;exitDx=0;exitDy=0;entryX=0.5;entryY=0;entryDx=0;entryDy=0;" edge="1" parent="WIyWlLk6GJQsqaUBKTNV-1" source="QJG5FulogUUSZnAcrw5h-16" target="QJG5FulogUUSZnAcrw5h-30">
          <mxGeometry relative="1" as="geometry">
            <mxPoint x="155" y="610" as="sourcePoint" />
            <mxPoint x="350" y="680" as="targetPoint" />
            <Array as="points">
              <mxPoint x="90" y="593" />
              <mxPoint x="90" y="650" />
              <mxPoint x="350" y="650" />
              <mxPoint x="350" y="680" />
            </Array>
          </mxGeometry>
        </mxCell>
        <mxCell id="QJG5FulogUUSZnAcrw5h-80" value="0..*" style="edgeLabel;resizable=0;html=1;align=left;verticalAlign=bottom;" connectable="0" vertex="1" parent="QJG5FulogUUSZnAcrw5h-79">
          <mxGeometry x="-1" relative="1" as="geometry">
            <mxPoint x="-25" y="18" as="offset" />
          </mxGeometry>
        </mxCell>
        <mxCell id="QJG5FulogUUSZnAcrw5h-81" value="1..*" style="edgeLabel;resizable=0;html=1;align=right;verticalAlign=bottom;" connectable="0" vertex="1" parent="QJG5FulogUUSZnAcrw5h-79">
          <mxGeometry x="1" relative="1" as="geometry">
            <mxPoint x="10" as="offset" />
          </mxGeometry>
        </mxCell>
        <mxCell id="QJG5FulogUUSZnAcrw5h-82" value="" style="endArrow=none;html=1;edgeStyle=orthogonalEdgeStyle;rounded=0;exitX=0.886;exitY=-0.002;exitDx=0;exitDy=0;entryX=0.885;entryY=1;entryDx=0;entryDy=0;entryPerimeter=0;strokeColor=#FF0A0A;exitPerimeter=0;" edge="1" parent="WIyWlLk6GJQsqaUBKTNV-1" source="QJG5FulogUUSZnAcrw5h-15" target="QJG5FulogUUSZnAcrw5h-18">
          <mxGeometry relative="1" as="geometry">
            <mxPoint x="200" y="588" as="sourcePoint" />
            <mxPoint x="315" y="100" as="targetPoint" />
            <Array as="points" />
          </mxGeometry>
        </mxCell>
        <mxCell id="QJG5FulogUUSZnAcrw5h-83" value="1" style="edgeLabel;resizable=0;html=1;align=left;verticalAlign=bottom;" connectable="0" vertex="1" parent="QJG5FulogUUSZnAcrw5h-82">
          <mxGeometry x="-1" relative="1" as="geometry">
            <mxPoint y="-5" as="offset" />
          </mxGeometry>
        </mxCell>
        <mxCell id="QJG5FulogUUSZnAcrw5h-84" value="0..*" style="edgeLabel;resizable=0;html=1;align=right;verticalAlign=bottom;" connectable="0" vertex="1" parent="QJG5FulogUUSZnAcrw5h-82">
          <mxGeometry x="1" relative="1" as="geometry">
            <mxPoint x="10" y="20" as="offset" />
          </mxGeometry>
        </mxCell>
        <mxCell id="QJG5FulogUUSZnAcrw5h-86" value="" style="endArrow=none;html=1;edgeStyle=orthogonalEdgeStyle;rounded=0;exitX=1;exitY=0.75;exitDx=0;exitDy=0;strokeColor=#FF0A0A;entryX=0;entryY=1;entryDx=0;entryDy=0;" edge="1" parent="WIyWlLk6GJQsqaUBKTNV-1" source="QJG5FulogUUSZnAcrw5h-15" target="QJG5FulogUUSZnAcrw5h-26">
          <mxGeometry relative="1" as="geometry">
            <mxPoint x="260" y="515" as="sourcePoint" />
            <mxPoint x="580" y="450" as="targetPoint" />
            <Array as="points">
              <mxPoint x="250" y="515" />
              <mxPoint x="300" y="515" />
              <mxPoint x="300" y="465" />
            </Array>
          </mxGeometry>
        </mxCell>
        <mxCell id="QJG5FulogUUSZnAcrw5h-87" value="1" style="edgeLabel;resizable=0;html=1;align=left;verticalAlign=bottom;" connectable="0" vertex="1" parent="QJG5FulogUUSZnAcrw5h-86">
          <mxGeometry x="-1" relative="1" as="geometry">
            <mxPoint y="18" as="offset" />
          </mxGeometry>
        </mxCell>
        <mxCell id="QJG5FulogUUSZnAcrw5h-88" value="1..*" style="edgeLabel;resizable=0;html=1;align=right;verticalAlign=bottom;" connectable="0" vertex="1" parent="QJG5FulogUUSZnAcrw5h-86">
          <mxGeometry x="1" relative="1" as="geometry">
            <mxPoint x="-10" y="5" as="offset" />
          </mxGeometry>
        </mxCell>
        <mxCell id="QJG5FulogUUSZnAcrw5h-93" value="" style="endArrow=none;html=1;edgeStyle=orthogonalEdgeStyle;rounded=0;strokeColor=#00FF44;entryX=0.814;entryY=-0.007;entryDx=0;entryDy=0;entryPerimeter=0;" edge="1" parent="WIyWlLk6GJQsqaUBKTNV-1" target="QJG5FulogUUSZnAcrw5h-16">
          <mxGeometry relative="1" as="geometry">
            <mxPoint x="160" y="340" as="sourcePoint" />
            <mxPoint x="330" y="480" as="targetPoint" />
            <Array as="points">
              <mxPoint x="160" y="340" />
              <mxPoint x="160" y="400" />
              <mxPoint x="330" y="400" />
              <mxPoint x="330" y="550" />
              <mxPoint x="179" y="550" />
            </Array>
          </mxGeometry>
        </mxCell>
        <mxCell id="QJG5FulogUUSZnAcrw5h-94" value="1" style="edgeLabel;resizable=0;html=1;align=left;verticalAlign=bottom;" connectable="0" vertex="1" parent="QJG5FulogUUSZnAcrw5h-93">
          <mxGeometry x="-1" relative="1" as="geometry">
            <mxPoint x="-12" y="18" as="offset" />
          </mxGeometry>
        </mxCell>
        <mxCell id="QJG5FulogUUSZnAcrw5h-95" value="0..*" style="edgeLabel;resizable=0;html=1;align=right;verticalAlign=bottom;" connectable="0" vertex="1" parent="QJG5FulogUUSZnAcrw5h-93">
          <mxGeometry x="1" relative="1" as="geometry">
            <mxPoint x="61" y="20" as="offset" />
          </mxGeometry>
        </mxCell>
        <mxCell id="QJG5FulogUUSZnAcrw5h-96" value="" style="endArrow=none;html=1;edgeStyle=orthogonalEdgeStyle;rounded=0;exitX=1;exitY=0;exitDx=0;exitDy=0;strokeColor=#00FF44;entryX=0.78;entryY=1.006;entryDx=0;entryDy=0;entryPerimeter=0;" edge="1" parent="WIyWlLk6GJQsqaUBKTNV-1" source="QJG5FulogUUSZnAcrw5h-17" target="QJG5FulogUUSZnAcrw5h-19">
          <mxGeometry relative="1" as="geometry">
            <mxPoint x="202" y="352" as="sourcePoint" />
            <mxPoint x="280" y="450" as="targetPoint" />
            <Array as="points">
              <mxPoint x="285" y="310" />
              <mxPoint x="285" y="90" />
            </Array>
          </mxGeometry>
        </mxCell>
        <mxCell id="QJG5FulogUUSZnAcrw5h-97" value="1" style="edgeLabel;resizable=0;html=1;align=left;verticalAlign=bottom;" connectable="0" vertex="1" parent="QJG5FulogUUSZnAcrw5h-96">
          <mxGeometry x="-1" relative="1" as="geometry">
            <mxPoint as="offset" />
          </mxGeometry>
        </mxCell>
        <mxCell id="QJG5FulogUUSZnAcrw5h-98" value="0..*" style="edgeLabel;resizable=0;html=1;align=right;verticalAlign=bottom;" connectable="0" vertex="1" parent="QJG5FulogUUSZnAcrw5h-96">
          <mxGeometry x="1" relative="1" as="geometry">
            <mxPoint x="35" y="10" as="offset" />
          </mxGeometry>
        </mxCell>
        <mxCell id="QJG5FulogUUSZnAcrw5h-90" value="" style="endArrow=none;html=1;edgeStyle=orthogonalEdgeStyle;rounded=0;exitX=0.869;exitY=1.019;exitDx=0;exitDy=0;strokeColor=#FF0A0A;exitPerimeter=0;entryX=-0.001;entryY=0.567;entryDx=0;entryDy=0;entryPerimeter=0;" edge="1" parent="WIyWlLk6GJQsqaUBKTNV-1" source="QJG5FulogUUSZnAcrw5h-15" target="QJG5FulogUUSZnAcrw5h-27">
          <mxGeometry relative="1" as="geometry">
            <mxPoint x="260" y="523" as="sourcePoint" />
            <mxPoint x="590" y="460" as="targetPoint" />
            <Array as="points">
              <mxPoint x="238" y="530" />
              <mxPoint x="577" y="530" />
              <mxPoint x="577" y="507" />
            </Array>
          </mxGeometry>
        </mxCell>
        <mxCell id="QJG5FulogUUSZnAcrw5h-91" value="1" style="edgeLabel;resizable=0;html=1;align=left;verticalAlign=bottom;" connectable="0" vertex="1" parent="QJG5FulogUUSZnAcrw5h-90">
          <mxGeometry x="-1" relative="1" as="geometry">
            <mxPoint y="18" as="offset" />
          </mxGeometry>
        </mxCell>
        <mxCell id="QJG5FulogUUSZnAcrw5h-92" value="1..*" style="edgeLabel;resizable=0;html=1;align=right;verticalAlign=bottom;" connectable="0" vertex="1" parent="QJG5FulogUUSZnAcrw5h-90">
          <mxGeometry x="1" relative="1" as="geometry">
            <mxPoint x="-10" y="33" as="offset" />
          </mxGeometry>
        </mxCell>
        <mxCell id="QJG5FulogUUSZnAcrw5h-99" value="" style="endArrow=none;html=1;edgeStyle=orthogonalEdgeStyle;rounded=0;exitX=0.753;exitY=-0.041;exitDx=0;exitDy=0;strokeColor=#00FF44;entryX=0.423;entryY=1.001;entryDx=0;entryDy=0;entryPerimeter=0;exitPerimeter=0;" edge="1" parent="WIyWlLk6GJQsqaUBKTNV-1" source="QJG5FulogUUSZnAcrw5h-17" target="QJG5FulogUUSZnAcrw5h-18">
          <mxGeometry relative="1" as="geometry">
            <mxPoint x="230" y="343" as="sourcePoint" />
            <mxPoint x="290" y="100" as="targetPoint" />
            <Array as="points">
              <mxPoint x="198" y="262" />
              <mxPoint x="198" y="262" />
            </Array>
          </mxGeometry>
        </mxCell>
        <mxCell id="QJG5FulogUUSZnAcrw5h-100" value="1" style="edgeLabel;resizable=0;html=1;align=left;verticalAlign=bottom;" connectable="0" vertex="1" parent="QJG5FulogUUSZnAcrw5h-99">
          <mxGeometry x="-1" relative="1" as="geometry">
            <mxPoint x="-18" y="1" as="offset" />
          </mxGeometry>
        </mxCell>
        <mxCell id="QJG5FulogUUSZnAcrw5h-101" value="0..*" style="edgeLabel;resizable=0;html=1;align=right;verticalAlign=bottom;" connectable="0" vertex="1" parent="QJG5FulogUUSZnAcrw5h-99">
          <mxGeometry x="1" relative="1" as="geometry">
            <mxPoint x="-8" y="20" as="offset" />
          </mxGeometry>
        </mxCell>
        <mxCell id="QJG5FulogUUSZnAcrw5h-105" value="" style="endArrow=none;html=1;edgeStyle=orthogonalEdgeStyle;rounded=0;strokeColor=#00FF44;exitX=1;exitY=0.25;exitDx=0;exitDy=0;" edge="1" parent="WIyWlLk6GJQsqaUBKTNV-1" source="QJG5FulogUUSZnAcrw5h-17">
          <mxGeometry relative="1" as="geometry">
            <mxPoint x="220" y="320" as="sourcePoint" />
            <mxPoint x="400" y="160" as="targetPoint" />
            <Array as="points">
              <mxPoint x="220" y="320" />
              <mxPoint x="400" y="320" />
              <mxPoint x="400" y="160" />
            </Array>
          </mxGeometry>
        </mxCell>
        <mxCell id="QJG5FulogUUSZnAcrw5h-106" value="1" style="edgeLabel;resizable=0;html=1;align=left;verticalAlign=bottom;" connectable="0" vertex="1" parent="QJG5FulogUUSZnAcrw5h-105">
          <mxGeometry x="-1" relative="1" as="geometry">
            <mxPoint y="10" as="offset" />
          </mxGeometry>
        </mxCell>
        <mxCell id="QJG5FulogUUSZnAcrw5h-107" value="0..*" style="edgeLabel;resizable=0;html=1;align=right;verticalAlign=bottom;" connectable="0" vertex="1" parent="QJG5FulogUUSZnAcrw5h-105">
          <mxGeometry x="1" relative="1" as="geometry">
            <mxPoint x="10" y="20" as="offset" />
          </mxGeometry>
        </mxCell>
        <mxCell id="QJG5FulogUUSZnAcrw5h-108" value="" style="endArrow=none;html=1;edgeStyle=orthogonalEdgeStyle;rounded=0;strokeColor=#00FF44;entryX=0;entryY=1;entryDx=0;entryDy=0;" edge="1" parent="WIyWlLk6GJQsqaUBKTNV-1" target="QJG5FulogUUSZnAcrw5h-24">
          <mxGeometry relative="1" as="geometry">
            <mxPoint x="220" y="330" as="sourcePoint" />
            <mxPoint x="330" y="180" as="targetPoint" />
            <Array as="points">
              <mxPoint x="330" y="330" />
              <mxPoint x="330" y="260" />
            </Array>
          </mxGeometry>
        </mxCell>
        <mxCell id="QJG5FulogUUSZnAcrw5h-109" value="1" style="edgeLabel;resizable=0;html=1;align=left;verticalAlign=bottom;" connectable="0" vertex="1" parent="QJG5FulogUUSZnAcrw5h-108">
          <mxGeometry x="-1" relative="1" as="geometry">
            <mxPoint y="10" as="offset" />
          </mxGeometry>
        </mxCell>
        <mxCell id="QJG5FulogUUSZnAcrw5h-110" value="0..*" style="edgeLabel;resizable=0;html=1;align=right;verticalAlign=bottom;" connectable="0" vertex="1" parent="QJG5FulogUUSZnAcrw5h-108">
          <mxGeometry x="1" relative="1" as="geometry">
            <mxPoint x="-20" y="10" as="offset" />
          </mxGeometry>
        </mxCell>
        <mxCell id="QJG5FulogUUSZnAcrw5h-111" value="" style="endArrow=none;html=1;edgeStyle=orthogonalEdgeStyle;rounded=0;strokeColor=#00FF44;exitX=1.001;exitY=0.964;exitDx=0;exitDy=0;exitPerimeter=0;" edge="1" parent="WIyWlLk6GJQsqaUBKTNV-1" source="QJG5FulogUUSZnAcrw5h-17">
          <mxGeometry relative="1" as="geometry">
            <mxPoint x="230" y="340" as="sourcePoint" />
            <mxPoint x="730" y="340" as="targetPoint" />
            <Array as="points">
              <mxPoint x="220" y="340" />
            </Array>
          </mxGeometry>
        </mxCell>
        <mxCell id="QJG5FulogUUSZnAcrw5h-112" value="1" style="edgeLabel;resizable=0;html=1;align=left;verticalAlign=bottom;" connectable="0" vertex="1" parent="QJG5FulogUUSZnAcrw5h-111">
          <mxGeometry x="-1" relative="1" as="geometry">
            <mxPoint y="10" as="offset" />
          </mxGeometry>
        </mxCell>
        <mxCell id="QJG5FulogUUSZnAcrw5h-113" value="0..*" style="edgeLabel;resizable=0;html=1;align=right;verticalAlign=bottom;" connectable="0" vertex="1" parent="QJG5FulogUUSZnAcrw5h-111">
          <mxGeometry x="1" relative="1" as="geometry">
            <mxPoint y="10" as="offset" />
          </mxGeometry>
        </mxCell>
        <mxCell id="QJG5FulogUUSZnAcrw5h-114" value="" style="endArrow=none;html=1;edgeStyle=orthogonalEdgeStyle;rounded=0;strokeColor=#00FF44;entryX=0.25;entryY=0;entryDx=0;entryDy=0;exitX=0.835;exitY=1.028;exitDx=0;exitDy=0;exitPerimeter=0;" edge="1" parent="WIyWlLk6GJQsqaUBKTNV-1" target="QJG5FulogUUSZnAcrw5h-29">
          <mxGeometry relative="1" as="geometry">
            <mxPoint x="209.99999999999997" y="340.84" as="sourcePoint" />
            <mxPoint x="634.85" y="350" as="targetPoint" />
            <Array as="points">
              <mxPoint x="210" y="350" />
              <mxPoint x="452" y="350" />
            </Array>
          </mxGeometry>
        </mxCell>
        <mxCell id="QJG5FulogUUSZnAcrw5h-115" value="1" style="edgeLabel;resizable=0;html=1;align=left;verticalAlign=bottom;" connectable="0" vertex="1" parent="QJG5FulogUUSZnAcrw5h-114">
          <mxGeometry x="-1" relative="1" as="geometry">
            <mxPoint y="19" as="offset" />
          </mxGeometry>
        </mxCell>
        <mxCell id="QJG5FulogUUSZnAcrw5h-116" value="0..*" style="edgeLabel;resizable=0;html=1;align=right;verticalAlign=bottom;" connectable="0" vertex="1" parent="QJG5FulogUUSZnAcrw5h-114">
          <mxGeometry x="1" relative="1" as="geometry">
            <mxPoint x="8" y="-10" as="offset" />
          </mxGeometry>
        </mxCell>
        <mxCell id="QJG5FulogUUSZnAcrw5h-117" value="" style="endArrow=none;html=1;edgeStyle=orthogonalEdgeStyle;rounded=0;strokeColor=#00FF44;exitX=0.775;exitY=1.043;exitDx=0;exitDy=0;exitPerimeter=0;entryX=0.367;entryY=-0.005;entryDx=0;entryDy=0;entryPerimeter=0;" edge="1" parent="WIyWlLk6GJQsqaUBKTNV-1" source="QJG5FulogUUSZnAcrw5h-17" target="QJG5FulogUUSZnAcrw5h-26">
          <mxGeometry relative="1" as="geometry">
            <mxPoint x="219.99999999999997" y="350.84" as="sourcePoint" />
            <mxPoint x="630" y="410" as="targetPoint" />
            <Array as="points">
              <mxPoint x="200" y="360" />
              <mxPoint x="620" y="360" />
              <mxPoint x="620" y="435" />
            </Array>
          </mxGeometry>
        </mxCell>
        <mxCell id="QJG5FulogUUSZnAcrw5h-118" value="1" style="edgeLabel;resizable=0;html=1;align=left;verticalAlign=bottom;" connectable="0" vertex="1" parent="QJG5FulogUUSZnAcrw5h-117">
          <mxGeometry x="-1" relative="1" as="geometry">
            <mxPoint y="29" as="offset" />
          </mxGeometry>
        </mxCell>
        <mxCell id="QJG5FulogUUSZnAcrw5h-119" value="1..*" style="edgeLabel;resizable=0;html=1;align=right;verticalAlign=bottom;" connectable="0" vertex="1" parent="QJG5FulogUUSZnAcrw5h-117">
          <mxGeometry x="1" relative="1" as="geometry">
            <mxPoint x="17" y="-5" as="offset" />
          </mxGeometry>
        </mxCell>
        <mxCell id="QJG5FulogUUSZnAcrw5h-120" value="" style="endArrow=none;html=1;edgeStyle=orthogonalEdgeStyle;rounded=0;strokeColor=#00FF44;exitX=0.666;exitY=0.971;exitDx=0;exitDy=0;exitPerimeter=0;entryX=0;entryY=0;entryDx=0;entryDy=0;" edge="1" parent="WIyWlLk6GJQsqaUBKTNV-1" source="QJG5FulogUUSZnAcrw5h-17" target="QJG5FulogUUSZnAcrw5h-27">
          <mxGeometry relative="1" as="geometry">
            <mxPoint x="210" y="351" as="sourcePoint" />
            <mxPoint x="641" y="446" as="targetPoint" />
            <Array as="points">
              <mxPoint x="190" y="370" />
              <mxPoint x="550" y="370" />
              <mxPoint x="550" y="490" />
            </Array>
          </mxGeometry>
        </mxCell>
        <mxCell id="QJG5FulogUUSZnAcrw5h-121" value="1" style="edgeLabel;resizable=0;html=1;align=left;verticalAlign=bottom;" connectable="0" vertex="1" parent="QJG5FulogUUSZnAcrw5h-120">
          <mxGeometry x="-1" relative="1" as="geometry">
            <mxPoint y="41" as="offset" />
          </mxGeometry>
        </mxCell>
        <mxCell id="QJG5FulogUUSZnAcrw5h-122" value="1..*" style="edgeLabel;resizable=0;html=1;align=right;verticalAlign=bottom;" connectable="0" vertex="1" parent="QJG5FulogUUSZnAcrw5h-120">
          <mxGeometry x="1" relative="1" as="geometry">
            <mxPoint x="-10" y="10" as="offset" />
          </mxGeometry>
        </mxCell>
        <mxCell id="QJG5FulogUUSZnAcrw5h-123" value="" style="endArrow=none;html=1;edgeStyle=orthogonalEdgeStyle;rounded=0;strokeColor=#00FF44;exitX=0.483;exitY=1.07;exitDx=0;exitDy=0;exitPerimeter=0;entryX=-0.006;entryY=0.562;entryDx=0;entryDy=0;entryPerimeter=0;" edge="1" parent="WIyWlLk6GJQsqaUBKTNV-1" source="QJG5FulogUUSZnAcrw5h-17" target="QJG5FulogUUSZnAcrw5h-28">
          <mxGeometry relative="1" as="geometry">
            <mxPoint x="200" y="349" as="sourcePoint" />
            <mxPoint x="590" y="500" as="targetPoint" />
            <Array as="points">
              <mxPoint x="174" y="380" />
              <mxPoint x="520" y="380" />
              <mxPoint x="520" y="565" />
              <mxPoint x="579" y="565" />
            </Array>
          </mxGeometry>
        </mxCell>
        <mxCell id="QJG5FulogUUSZnAcrw5h-124" value="1" style="edgeLabel;resizable=0;html=1;align=left;verticalAlign=bottom;" connectable="0" vertex="1" parent="QJG5FulogUUSZnAcrw5h-123">
          <mxGeometry x="-1" relative="1" as="geometry">
            <mxPoint x="-3" y="41" as="offset" />
          </mxGeometry>
        </mxCell>
        <mxCell id="QJG5FulogUUSZnAcrw5h-125" value="1..*" style="edgeLabel;resizable=0;html=1;align=right;verticalAlign=bottom;" connectable="0" vertex="1" parent="QJG5FulogUUSZnAcrw5h-123">
          <mxGeometry x="1" relative="1" as="geometry">
            <mxPoint x="-10" y="10" as="offset" />
          </mxGeometry>
        </mxCell>
        <mxCell id="QJG5FulogUUSZnAcrw5h-126" value="" style="endArrow=none;html=1;edgeStyle=orthogonalEdgeStyle;rounded=0;exitX=1.012;exitY=0.08;exitDx=0;exitDy=0;entryX=1;entryY=1;entryDx=0;entryDy=0;exitPerimeter=0;" edge="1" parent="WIyWlLk6GJQsqaUBKTNV-1" source="QJG5FulogUUSZnAcrw5h-16" target="QJG5FulogUUSZnAcrw5h-18">
          <mxGeometry relative="1" as="geometry">
            <mxPoint x="200" y="592" as="sourcePoint" />
            <mxPoint x="315" y="100" as="targetPoint" />
            <Array as="points">
              <mxPoint x="191" y="570" />
              <mxPoint x="315" y="570" />
              <mxPoint x="315" y="260" />
            </Array>
          </mxGeometry>
        </mxCell>
        <mxCell id="QJG5FulogUUSZnAcrw5h-127" value="1" style="edgeLabel;resizable=0;html=1;align=left;verticalAlign=bottom;" connectable="0" vertex="1" parent="QJG5FulogUUSZnAcrw5h-126">
          <mxGeometry x="-1" relative="1" as="geometry">
            <mxPoint x="9" y="8" as="offset" />
          </mxGeometry>
        </mxCell>
        <mxCell id="QJG5FulogUUSZnAcrw5h-128" value="0..*" style="edgeLabel;resizable=0;html=1;align=right;verticalAlign=bottom;" connectable="0" vertex="1" parent="QJG5FulogUUSZnAcrw5h-126">
          <mxGeometry x="1" relative="1" as="geometry">
            <mxPoint x="30" y="10" as="offset" />
          </mxGeometry>
        </mxCell>
        <mxCell id="QJG5FulogUUSZnAcrw5h-129" value="" style="endArrow=none;html=1;edgeStyle=orthogonalEdgeStyle;rounded=0;strokeColor=#0077FF;entryX=0;entryY=0.25;entryDx=0;entryDy=0;" edge="1" parent="WIyWlLk6GJQsqaUBKTNV-1" target="QJG5FulogUUSZnAcrw5h-19">
          <mxGeometry relative="1" as="geometry">
            <mxPoint x="208" y="220" as="sourcePoint" />
            <mxPoint x="208" y="270" as="targetPoint" />
            <Array as="points">
              <mxPoint x="208" y="68" />
            </Array>
          </mxGeometry>
        </mxCell>
        <mxCell id="QJG5FulogUUSZnAcrw5h-130" value="0..*" style="edgeLabel;resizable=0;html=1;align=left;verticalAlign=bottom;" connectable="0" vertex="1" parent="QJG5FulogUUSZnAcrw5h-129">
          <mxGeometry x="-1" relative="1" as="geometry">
            <mxPoint x="-8" y="-10" as="offset" />
          </mxGeometry>
        </mxCell>
        <mxCell id="QJG5FulogUUSZnAcrw5h-131" value="1" style="edgeLabel;resizable=0;html=1;align=right;verticalAlign=bottom;" connectable="0" vertex="1" parent="QJG5FulogUUSZnAcrw5h-129">
          <mxGeometry x="1" relative="1" as="geometry">
            <mxPoint x="-8" y="20" as="offset" />
          </mxGeometry>
        </mxCell>
        <mxCell id="QJG5FulogUUSZnAcrw5h-132" value="" style="endArrow=none;html=1;edgeStyle=orthogonalEdgeStyle;rounded=0;strokeColor=#FFCCE6;entryX=0.607;entryY=0.956;entryDx=0;entryDy=0;entryPerimeter=0;exitX=1;exitY=0.25;exitDx=0;exitDy=0;" edge="1" parent="WIyWlLk6GJQsqaUBKTNV-1" target="QJG5FulogUUSZnAcrw5h-21">
          <mxGeometry relative="1" as="geometry">
            <mxPoint x="250" y="229.01" as="sourcePoint" />
            <mxPoint x="576.7" y="90.00000000000001" as="targetPoint" />
            <Array as="points">
              <mxPoint x="570" y="229" />
              <mxPoint x="570" y="90" />
              <mxPoint x="571" y="90" />
            </Array>
          </mxGeometry>
        </mxCell>
        <mxCell id="QJG5FulogUUSZnAcrw5h-133" value="0..*" style="edgeLabel;resizable=0;html=1;align=left;verticalAlign=bottom;" connectable="0" vertex="1" parent="QJG5FulogUUSZnAcrw5h-132">
          <mxGeometry x="-1" relative="1" as="geometry">
            <mxPoint x="10" y="10" as="offset" />
          </mxGeometry>
        </mxCell>
        <mxCell id="QJG5FulogUUSZnAcrw5h-134" value="1" style="edgeLabel;resizable=0;html=1;align=right;verticalAlign=bottom;" connectable="0" vertex="1" parent="QJG5FulogUUSZnAcrw5h-132">
          <mxGeometry x="1" relative="1" as="geometry">
            <mxPoint x="9" y="20" as="offset" />
          </mxGeometry>
        </mxCell>
        <mxCell id="QJG5FulogUUSZnAcrw5h-135" value="" style="endArrow=none;html=1;edgeStyle=orthogonalEdgeStyle;rounded=0;strokeColor=#0077FF;entryX=0.133;entryY=-0.009;entryDx=0;entryDy=0;entryPerimeter=0;exitX=1;exitY=0.714;exitDx=0;exitDy=0;exitPerimeter=0;" edge="1" parent="WIyWlLk6GJQsqaUBKTNV-1" source="QJG5FulogUUSZnAcrw5h-18" target="QJG5FulogUUSZnAcrw5h-26">
          <mxGeometry relative="1" as="geometry">
            <mxPoint x="250" y="224" as="sourcePoint" />
            <mxPoint x="587" y="101" as="targetPoint" />
            <Array as="points">
              <mxPoint x="250" y="250" />
              <mxPoint x="360" y="250" />
              <mxPoint x="360" y="280" />
              <mxPoint x="592" y="280" />
            </Array>
          </mxGeometry>
        </mxCell>
        <mxCell id="QJG5FulogUUSZnAcrw5h-136" value="1" style="edgeLabel;resizable=0;html=1;align=left;verticalAlign=bottom;" connectable="0" vertex="1" parent="QJG5FulogUUSZnAcrw5h-135">
          <mxGeometry x="-1" relative="1" as="geometry">
            <mxPoint y="4" as="offset" />
          </mxGeometry>
        </mxCell>
        <mxCell id="QJG5FulogUUSZnAcrw5h-137" value="1..*" style="edgeLabel;resizable=0;html=1;align=right;verticalAlign=bottom;" connectable="0" vertex="1" parent="QJG5FulogUUSZnAcrw5h-135">
          <mxGeometry x="1" relative="1" as="geometry">
            <mxPoint x="12" y="-5" as="offset" />
          </mxGeometry>
        </mxCell>
        <mxCell id="QJG5FulogUUSZnAcrw5h-138" value="" style="endArrow=none;html=1;edgeStyle=orthogonalEdgeStyle;rounded=0;strokeColor=#C60DFF;entryX=0.5;entryY=1;entryDx=0;entryDy=0;exitX=0.37;exitY=0.978;exitDx=0;exitDy=0;exitPerimeter=0;" edge="1" parent="WIyWlLk6GJQsqaUBKTNV-1" source="QJG5FulogUUSZnAcrw5h-22" target="QJG5FulogUUSZnAcrw5h-19">
          <mxGeometry relative="1" as="geometry">
            <mxPoint x="218" y="230" as="sourcePoint" />
            <mxPoint x="225" y="78" as="targetPoint" />
            <Array as="points">
              <mxPoint x="463" y="210" />
              <mxPoint x="260" y="210" />
            </Array>
          </mxGeometry>
        </mxCell>
        <mxCell id="QJG5FulogUUSZnAcrw5h-139" value="1" style="edgeLabel;resizable=0;html=1;align=left;verticalAlign=bottom;" connectable="0" vertex="1" parent="QJG5FulogUUSZnAcrw5h-138">
          <mxGeometry x="-1" relative="1" as="geometry">
            <mxPoint x="-13" y="11" as="offset" />
          </mxGeometry>
        </mxCell>
        <mxCell id="QJG5FulogUUSZnAcrw5h-140" value="0..*" style="edgeLabel;resizable=0;html=1;align=right;verticalAlign=bottom;" connectable="0" vertex="1" parent="QJG5FulogUUSZnAcrw5h-138">
          <mxGeometry x="1" relative="1" as="geometry">
            <mxPoint x="10" y="20" as="offset" />
          </mxGeometry>
        </mxCell>
        <mxCell id="QJG5FulogUUSZnAcrw5h-141" value="" style="endArrow=none;html=1;edgeStyle=orthogonalEdgeStyle;rounded=0;strokeColor=#C60DFF;entryX=0.272;entryY=0.997;entryDx=0;entryDy=0;entryPerimeter=0;" edge="1" parent="WIyWlLk6GJQsqaUBKTNV-1" target="QJG5FulogUUSZnAcrw5h-19">
          <mxGeometry relative="1" as="geometry">
            <mxPoint x="310" y="140" as="sourcePoint" />
            <mxPoint x="270" y="100" as="targetPoint" />
            <Array as="points">
              <mxPoint x="310" y="140" />
              <mxPoint x="240" y="140" />
              <mxPoint x="240" y="91" />
              <mxPoint x="240" y="91" />
            </Array>
          </mxGeometry>
        </mxCell>
        <mxCell id="QJG5FulogUUSZnAcrw5h-142" value="1" style="edgeLabel;resizable=0;html=1;align=left;verticalAlign=bottom;" connectable="0" vertex="1" parent="QJG5FulogUUSZnAcrw5h-141">
          <mxGeometry x="-1" relative="1" as="geometry">
            <mxPoint y="10" as="offset" />
          </mxGeometry>
        </mxCell>
        <mxCell id="QJG5FulogUUSZnAcrw5h-143" value="0..*" style="edgeLabel;resizable=0;html=1;align=right;verticalAlign=bottom;" connectable="0" vertex="1" parent="QJG5FulogUUSZnAcrw5h-141">
          <mxGeometry x="1" relative="1" as="geometry">
            <mxPoint x="11" y="20" as="offset" />
          </mxGeometry>
        </mxCell>
        <mxCell id="QJG5FulogUUSZnAcrw5h-144" value="" style="endArrow=none;html=1;edgeStyle=orthogonalEdgeStyle;rounded=0;strokeColor=#C60DFF;entryX=0;entryY=1;entryDx=0;entryDy=0;" edge="1" parent="WIyWlLk6GJQsqaUBKTNV-1" target="QJG5FulogUUSZnAcrw5h-19">
          <mxGeometry relative="1" as="geometry">
            <mxPoint x="631" y="220" as="sourcePoint" />
            <mxPoint x="249" y="100" as="targetPoint" />
            <Array as="points">
              <mxPoint x="631" y="190" />
              <mxPoint x="215" y="190" />
            </Array>
          </mxGeometry>
        </mxCell>
        <mxCell id="QJG5FulogUUSZnAcrw5h-145" value="0..*" style="edgeLabel;resizable=0;html=1;align=left;verticalAlign=bottom;" connectable="0" vertex="1" parent="QJG5FulogUUSZnAcrw5h-144">
          <mxGeometry x="-1" relative="1" as="geometry">
            <mxPoint x="-11" y="-10" as="offset" />
          </mxGeometry>
        </mxCell>
        <mxCell id="QJG5FulogUUSZnAcrw5h-146" value="1" style="edgeLabel;resizable=0;html=1;align=right;verticalAlign=bottom;" connectable="0" vertex="1" parent="QJG5FulogUUSZnAcrw5h-144">
          <mxGeometry x="1" relative="1" as="geometry">
            <mxPoint x="5" y="40" as="offset" />
          </mxGeometry>
        </mxCell>
        <mxCell id="QJG5FulogUUSZnAcrw5h-150" value="" style="endArrow=none;html=1;edgeStyle=orthogonalEdgeStyle;rounded=0;strokeColor=#C60DFF;entryX=0.395;entryY=0.006;entryDx=0;entryDy=0;entryPerimeter=0;exitX=0.5;exitY=0;exitDx=0;exitDy=0;" edge="1" parent="WIyWlLk6GJQsqaUBKTNV-1" source="QJG5FulogUUSZnAcrw5h-21" target="QJG5FulogUUSZnAcrw5h-19">
          <mxGeometry relative="1" as="geometry">
            <mxPoint x="330" y="170" as="sourcePoint" />
            <mxPoint x="249" y="100" as="targetPoint" />
            <Array as="points">
              <mxPoint x="560" y="10" />
              <mxPoint x="250" y="10" />
              <mxPoint x="250" y="60" />
              <mxPoint x="251" y="60" />
            </Array>
          </mxGeometry>
        </mxCell>
        <mxCell id="QJG5FulogUUSZnAcrw5h-151" value="1" style="edgeLabel;resizable=0;html=1;align=left;verticalAlign=bottom;" connectable="0" vertex="1" parent="QJG5FulogUUSZnAcrw5h-150">
          <mxGeometry x="-1" relative="1" as="geometry">
            <mxPoint as="offset" />
          </mxGeometry>
        </mxCell>
        <mxCell id="QJG5FulogUUSZnAcrw5h-152" value="1" style="edgeLabel;resizable=0;html=1;align=right;verticalAlign=bottom;" connectable="0" vertex="1" parent="QJG5FulogUUSZnAcrw5h-150">
          <mxGeometry x="1" relative="1" as="geometry">
            <mxPoint x="9" as="offset" />
          </mxGeometry>
        </mxCell>
        <mxCell id="QJG5FulogUUSZnAcrw5h-153" value="" style="endArrow=none;html=1;edgeStyle=orthogonalEdgeStyle;rounded=0;strokeColor=#C60DFF;entryX=0.111;entryY=1.001;entryDx=0;entryDy=0;entryPerimeter=0;exitX=1.004;exitY=0.61;exitDx=0;exitDy=0;exitPerimeter=0;" edge="1" parent="WIyWlLk6GJQsqaUBKTNV-1" source="QJG5FulogUUSZnAcrw5h-29" target="QJG5FulogUUSZnAcrw5h-19">
          <mxGeometry relative="1" as="geometry">
            <mxPoint x="550" y="670" as="sourcePoint" />
            <mxPoint x="225" y="100" as="targetPoint" />
            <Array as="points">
              <mxPoint x="550" y="704" />
              <mxPoint x="550" y="660" />
              <mxPoint x="510" y="660" />
              <mxPoint x="510" y="200" />
              <mxPoint x="225" y="200" />
            </Array>
          </mxGeometry>
        </mxCell>
        <mxCell id="QJG5FulogUUSZnAcrw5h-154" value="0..1" style="edgeLabel;resizable=0;html=1;align=left;verticalAlign=bottom;" connectable="0" vertex="1" parent="QJG5FulogUUSZnAcrw5h-153">
          <mxGeometry x="-1" relative="1" as="geometry">
            <mxPoint as="offset" />
          </mxGeometry>
        </mxCell>
        <mxCell id="QJG5FulogUUSZnAcrw5h-155" value="1" style="edgeLabel;resizable=0;html=1;align=right;verticalAlign=bottom;" connectable="0" vertex="1" parent="QJG5FulogUUSZnAcrw5h-153">
          <mxGeometry x="1" relative="1" as="geometry">
            <mxPoint x="5" y="40" as="offset" />
          </mxGeometry>
        </mxCell>
        <mxCell id="QJG5FulogUUSZnAcrw5h-156" value="" style="endArrow=none;html=1;edgeStyle=orthogonalEdgeStyle;rounded=0;strokeColor=#C60DFF;entryX=0.184;entryY=1.021;entryDx=0;entryDy=0;entryPerimeter=0;exitX=0.829;exitY=-0.017;exitDx=0;exitDy=0;exitPerimeter=0;" edge="1" parent="WIyWlLk6GJQsqaUBKTNV-1" source="QJG5FulogUUSZnAcrw5h-30" target="QJG5FulogUUSZnAcrw5h-19">
          <mxGeometry relative="1" as="geometry">
            <mxPoint x="520" y="690" as="sourcePoint" />
            <mxPoint x="235" y="100" as="targetPoint" />
            <Array as="points">
              <mxPoint x="380" y="170" />
              <mxPoint x="232" y="170" />
            </Array>
          </mxGeometry>
        </mxCell>
        <mxCell id="QJG5FulogUUSZnAcrw5h-157" value="0..*" style="edgeLabel;resizable=0;html=1;align=left;verticalAlign=bottom;" connectable="0" vertex="1" parent="QJG5FulogUUSZnAcrw5h-156">
          <mxGeometry x="-1" relative="1" as="geometry">
            <mxPoint as="offset" />
          </mxGeometry>
        </mxCell>
        <mxCell id="QJG5FulogUUSZnAcrw5h-158" value="1" style="edgeLabel;resizable=0;html=1;align=right;verticalAlign=bottom;" connectable="0" vertex="1" parent="QJG5FulogUUSZnAcrw5h-156">
          <mxGeometry x="1" relative="1" as="geometry">
            <mxPoint x="5" y="67" as="offset" />
          </mxGeometry>
        </mxCell>
        <mxCell id="QJG5FulogUUSZnAcrw5h-159" value="" style="endArrow=none;html=1;edgeStyle=orthogonalEdgeStyle;rounded=0;strokeColor=#C60DFF;entryX=0.612;entryY=0.991;entryDx=0;entryDy=0;entryPerimeter=0;exitX=-0.005;exitY=0.322;exitDx=0;exitDy=0;exitPerimeter=0;" edge="1" parent="WIyWlLk6GJQsqaUBKTNV-1" source="QJG5FulogUUSZnAcrw5h-26" target="QJG5FulogUUSZnAcrw5h-19">
          <mxGeometry relative="1" as="geometry">
            <mxPoint x="540" y="330" as="sourcePoint" />
            <mxPoint x="270" y="100" as="targetPoint" />
            <Array as="points">
              <mxPoint x="530" y="445" />
              <mxPoint x="530" y="180" />
              <mxPoint x="270" y="180" />
            </Array>
          </mxGeometry>
        </mxCell>
        <mxCell id="QJG5FulogUUSZnAcrw5h-160" value="1..*" style="edgeLabel;resizable=0;html=1;align=left;verticalAlign=bottom;" connectable="0" vertex="1" parent="QJG5FulogUUSZnAcrw5h-159">
          <mxGeometry x="-1" relative="1" as="geometry">
            <mxPoint x="-30" y="5" as="offset" />
          </mxGeometry>
        </mxCell>
        <mxCell id="QJG5FulogUUSZnAcrw5h-161" value="1..*" style="edgeLabel;resizable=0;html=1;align=right;verticalAlign=bottom;" connectable="0" vertex="1" parent="QJG5FulogUUSZnAcrw5h-159">
          <mxGeometry x="1" relative="1" as="geometry">
            <mxPoint x="10" y="40" as="offset" />
          </mxGeometry>
        </mxCell>
        <mxCell id="QJG5FulogUUSZnAcrw5h-162" value="" style="endArrow=none;html=1;edgeStyle=orthogonalEdgeStyle;rounded=0;strokeColor=#C60DFF;entryX=0.89;entryY=1.001;entryDx=0;entryDy=0;entryPerimeter=0;exitX=-0.004;exitY=0.344;exitDx=0;exitDy=0;exitPerimeter=0;" edge="1" parent="WIyWlLk6GJQsqaUBKTNV-1" source="QJG5FulogUUSZnAcrw5h-27" target="QJG5FulogUUSZnAcrw5h-19">
          <mxGeometry relative="1" as="geometry">
            <mxPoint x="590" y="455" as="sourcePoint" />
            <mxPoint x="280" y="100" as="targetPoint" />
            <Array as="points">
              <mxPoint x="470" y="500" />
              <mxPoint x="470" y="240" />
              <mxPoint x="295" y="240" />
            </Array>
          </mxGeometry>
        </mxCell>
        <mxCell id="QJG5FulogUUSZnAcrw5h-163" value="1..*" style="edgeLabel;resizable=0;html=1;align=left;verticalAlign=bottom;" connectable="0" vertex="1" parent="QJG5FulogUUSZnAcrw5h-162">
          <mxGeometry x="-1" relative="1" as="geometry">
            <mxPoint x="-30" y="20" as="offset" />
          </mxGeometry>
        </mxCell>
        <mxCell id="QJG5FulogUUSZnAcrw5h-164" value="1..*" style="edgeLabel;resizable=0;html=1;align=right;verticalAlign=bottom;" connectable="0" vertex="1" parent="QJG5FulogUUSZnAcrw5h-162">
          <mxGeometry x="1" relative="1" as="geometry">
            <mxPoint x="10" y="30" as="offset" />
          </mxGeometry>
        </mxCell>
        <mxCell id="QJG5FulogUUSZnAcrw5h-165" value="" style="endArrow=none;html=1;edgeStyle=orthogonalEdgeStyle;rounded=0;strokeColor=#C60DFF;entryX=0.411;entryY=1.016;entryDx=0;entryDy=0;entryPerimeter=0;exitX=0;exitY=0;exitDx=0;exitDy=0;" edge="1" parent="WIyWlLk6GJQsqaUBKTNV-1" source="QJG5FulogUUSZnAcrw5h-28" target="QJG5FulogUUSZnAcrw5h-19">
          <mxGeometry relative="1" as="geometry">
            <mxPoint x="390" y="689" as="sourcePoint" />
            <mxPoint x="242" y="101" as="targetPoint" />
            <Array as="points">
              <mxPoint x="580" y="552" />
              <mxPoint x="390" y="552" />
              <mxPoint x="390" y="220" />
              <mxPoint x="252" y="220" />
            </Array>
          </mxGeometry>
        </mxCell>
        <mxCell id="QJG5FulogUUSZnAcrw5h-166" value="1..*" style="edgeLabel;resizable=0;html=1;align=left;verticalAlign=bottom;" connectable="0" vertex="1" parent="QJG5FulogUUSZnAcrw5h-165">
          <mxGeometry x="-1" relative="1" as="geometry">
            <mxPoint x="-30" y="15" as="offset" />
          </mxGeometry>
        </mxCell>
        <mxCell id="QJG5FulogUUSZnAcrw5h-167" value="1..*" style="edgeLabel;resizable=0;html=1;align=right;verticalAlign=bottom;" connectable="0" vertex="1" parent="QJG5FulogUUSZnAcrw5h-165">
          <mxGeometry x="1" relative="1" as="geometry">
            <mxPoint x="8" y="70" as="offset" />
          </mxGeometry>
        </mxCell>
        <mxCell id="QJG5FulogUUSZnAcrw5h-168" value="" style="endArrow=none;html=1;edgeStyle=orthogonalEdgeStyle;rounded=0;strokeColor=#FFCCE6;exitX=0.715;exitY=-0.022;exitDx=0;exitDy=0;exitPerimeter=0;entryX=0.091;entryY=1.006;entryDx=0;entryDy=0;entryPerimeter=0;" edge="1" parent="WIyWlLk6GJQsqaUBKTNV-1" source="QJG5FulogUUSZnAcrw5h-22" target="QJG5FulogUUSZnAcrw5h-21">
          <mxGeometry relative="1" as="geometry">
            <mxPoint x="520" y="140" as="sourcePoint" />
            <mxPoint x="550" y="90" as="targetPoint" />
            <Array as="points">
              <mxPoint x="494" y="130" />
              <mxPoint x="519" y="130" />
            </Array>
          </mxGeometry>
        </mxCell>
        <mxCell id="QJG5FulogUUSZnAcrw5h-169" value="1" style="edgeLabel;resizable=0;html=1;align=left;verticalAlign=bottom;" connectable="0" vertex="1" parent="QJG5FulogUUSZnAcrw5h-168">
          <mxGeometry x="-1" relative="1" as="geometry">
            <mxPoint x="-10" y="1" as="offset" />
          </mxGeometry>
        </mxCell>
        <mxCell id="QJG5FulogUUSZnAcrw5h-170" value="0..*" style="edgeLabel;resizable=0;html=1;align=right;verticalAlign=bottom;" connectable="0" vertex="1" parent="QJG5FulogUUSZnAcrw5h-168">
          <mxGeometry x="1" relative="1" as="geometry">
            <mxPoint x="31" y="50" as="offset" />
          </mxGeometry>
        </mxCell>
        <mxCell id="QJG5FulogUUSZnAcrw5h-171" value="" style="endArrow=none;html=1;edgeStyle=orthogonalEdgeStyle;rounded=0;strokeColor=#FFCCE6;exitX=0.75;exitY=0;exitDx=0;exitDy=0;entryX=0;entryY=1;entryDx=0;entryDy=0;" edge="1" parent="WIyWlLk6GJQsqaUBKTNV-1" source="QJG5FulogUUSZnAcrw5h-23" target="QJG5FulogUUSZnAcrw5h-21">
          <mxGeometry relative="1" as="geometry">
            <mxPoint x="504" y="149" as="sourcePoint" />
            <mxPoint x="560" y="100" as="targetPoint" />
            <Array as="points">
              <mxPoint x="378" y="120" />
              <mxPoint x="510" y="120" />
            </Array>
          </mxGeometry>
        </mxCell>
        <mxCell id="QJG5FulogUUSZnAcrw5h-172" value="1" style="edgeLabel;resizable=0;html=1;align=left;verticalAlign=bottom;" connectable="0" vertex="1" parent="QJG5FulogUUSZnAcrw5h-171">
          <mxGeometry x="-1" relative="1" as="geometry">
            <mxPoint x="-10" as="offset" />
          </mxGeometry>
        </mxCell>
        <mxCell id="QJG5FulogUUSZnAcrw5h-173" value="0..*" style="edgeLabel;resizable=0;html=1;align=right;verticalAlign=bottom;" connectable="0" vertex="1" parent="QJG5FulogUUSZnAcrw5h-171">
          <mxGeometry x="1" relative="1" as="geometry">
            <mxPoint y="20" as="offset" />
          </mxGeometry>
        </mxCell>
        <mxCell id="QJG5FulogUUSZnAcrw5h-174" value="" style="endArrow=none;html=1;edgeStyle=orthogonalEdgeStyle;rounded=0;strokeColor=#FFCCE6;entryX=1.002;entryY=0.441;entryDx=0;entryDy=0;entryPerimeter=0;" edge="1" parent="WIyWlLk6GJQsqaUBKTNV-1" target="QJG5FulogUUSZnAcrw5h-21">
          <mxGeometry relative="1" as="geometry">
            <mxPoint x="670" y="220" as="sourcePoint" />
            <mxPoint x="560" y="100" as="targetPoint" />
            <Array as="points">
              <mxPoint x="670" y="73" />
            </Array>
          </mxGeometry>
        </mxCell>
        <mxCell id="QJG5FulogUUSZnAcrw5h-175" value="0..*" style="edgeLabel;resizable=0;html=1;align=left;verticalAlign=bottom;" connectable="0" vertex="1" parent="QJG5FulogUUSZnAcrw5h-174">
          <mxGeometry x="-1" relative="1" as="geometry">
            <mxPoint x="-10" as="offset" />
          </mxGeometry>
        </mxCell>
        <mxCell id="QJG5FulogUUSZnAcrw5h-176" value="1" style="edgeLabel;resizable=0;html=1;align=right;verticalAlign=bottom;" connectable="0" vertex="1" parent="QJG5FulogUUSZnAcrw5h-174">
          <mxGeometry x="1" relative="1" as="geometry">
            <mxPoint x="10" y="-3" as="offset" />
          </mxGeometry>
        </mxCell>
        <mxCell id="QJG5FulogUUSZnAcrw5h-177" value="" style="endArrow=none;html=1;edgeStyle=orthogonalEdgeStyle;rounded=0;strokeColor=#FFCCE6;entryX=0.393;entryY=0.967;entryDx=0;entryDy=0;entryPerimeter=0;" edge="1" parent="WIyWlLk6GJQsqaUBKTNV-1" target="QJG5FulogUUSZnAcrw5h-21">
          <mxGeometry relative="1" as="geometry">
            <mxPoint x="500" y="680" as="sourcePoint" />
            <mxPoint x="620" y="83" as="targetPoint" />
            <Array as="points">
              <mxPoint x="500" y="210" />
              <mxPoint x="550" y="210" />
              <mxPoint x="550" y="89" />
            </Array>
          </mxGeometry>
        </mxCell>
        <mxCell id="QJG5FulogUUSZnAcrw5h-178" value="0..1" style="edgeLabel;resizable=0;html=1;align=left;verticalAlign=bottom;" connectable="0" vertex="1" parent="QJG5FulogUUSZnAcrw5h-177">
          <mxGeometry x="-1" relative="1" as="geometry">
            <mxPoint x="-10" as="offset" />
          </mxGeometry>
        </mxCell>
        <mxCell id="QJG5FulogUUSZnAcrw5h-179" value="1" style="edgeLabel;resizable=0;html=1;align=right;verticalAlign=bottom;" connectable="0" vertex="1" parent="QJG5FulogUUSZnAcrw5h-177">
          <mxGeometry x="1" relative="1" as="geometry">
            <mxPoint x="1" y="20" as="offset" />
          </mxGeometry>
        </mxCell>
        <mxCell id="QJG5FulogUUSZnAcrw5h-180" value="" style="endArrow=none;html=1;edgeStyle=orthogonalEdgeStyle;rounded=0;strokeColor=#FFCCE6;exitX=1;exitY=0.25;exitDx=0;exitDy=0;" edge="1" parent="WIyWlLk6GJQsqaUBKTNV-1" source="QJG5FulogUUSZnAcrw5h-30">
          <mxGeometry relative="1" as="geometry">
            <mxPoint x="510" y="690" as="sourcePoint" />
            <mxPoint x="560" y="90" as="targetPoint" />
            <Array as="points">
              <mxPoint x="410" y="690" />
              <mxPoint x="410" y="300" />
              <mxPoint x="560" y="300" />
            </Array>
          </mxGeometry>
        </mxCell>
        <mxCell id="QJG5FulogUUSZnAcrw5h-181" value="1..*" style="edgeLabel;resizable=0;html=1;align=left;verticalAlign=bottom;" connectable="0" vertex="1" parent="QJG5FulogUUSZnAcrw5h-180">
          <mxGeometry x="-1" relative="1" as="geometry">
            <mxPoint x="-5" y="10" as="offset" />
          </mxGeometry>
        </mxCell>
        <mxCell id="QJG5FulogUUSZnAcrw5h-182" value="1" style="edgeLabel;resizable=0;html=1;align=right;verticalAlign=bottom;" connectable="0" vertex="1" parent="QJG5FulogUUSZnAcrw5h-180">
          <mxGeometry x="1" relative="1" as="geometry">
            <mxPoint y="38" as="offset" />
          </mxGeometry>
        </mxCell>
        <mxCell id="QJG5FulogUUSZnAcrw5h-184" value="" style="endArrow=none;html=1;edgeStyle=orthogonalEdgeStyle;rounded=0;strokeColor=#FFCCE6;exitX=0.674;exitY=-0.011;exitDx=0;exitDy=0;exitPerimeter=0;" edge="1" parent="WIyWlLk6GJQsqaUBKTNV-1" source="QJG5FulogUUSZnAcrw5h-26">
          <mxGeometry relative="1" as="geometry">
            <mxPoint x="650" y="430" as="sourcePoint" />
            <mxPoint x="600" y="90" as="targetPoint" />
            <Array as="points">
              <mxPoint x="641" y="380" />
              <mxPoint x="600" y="380" />
            </Array>
          </mxGeometry>
        </mxCell>
        <mxCell id="QJG5FulogUUSZnAcrw5h-185" value="1..*" style="edgeLabel;resizable=0;html=1;align=left;verticalAlign=bottom;" connectable="0" vertex="1" parent="QJG5FulogUUSZnAcrw5h-184">
          <mxGeometry x="-1" relative="1" as="geometry">
            <mxPoint x="-10" y="-5" as="offset" />
          </mxGeometry>
        </mxCell>
        <mxCell id="QJG5FulogUUSZnAcrw5h-186" value="1..*" style="edgeLabel;resizable=0;html=1;align=right;verticalAlign=bottom;" connectable="0" vertex="1" parent="QJG5FulogUUSZnAcrw5h-184">
          <mxGeometry x="1" relative="1" as="geometry">
            <mxPoint x="10" y="20" as="offset" />
          </mxGeometry>
        </mxCell>
        <mxCell id="QJG5FulogUUSZnAcrw5h-187" value="" style="endArrow=none;html=1;edgeStyle=orthogonalEdgeStyle;rounded=0;strokeColor=#FFCCE6;exitX=0.25;exitY=0;exitDx=0;exitDy=0;" edge="1" parent="WIyWlLk6GJQsqaUBKTNV-1" source="QJG5FulogUUSZnAcrw5h-27">
          <mxGeometry relative="1" as="geometry">
            <mxPoint x="660" y="445" as="sourcePoint" />
            <mxPoint x="610" y="80" as="targetPoint" />
            <Array as="points">
              <mxPoint x="603" y="480" />
              <mxPoint x="440" y="480" />
              <mxPoint x="440" y="250" />
              <mxPoint x="590" y="250" />
              <mxPoint x="590" y="180" />
              <mxPoint x="630" y="180" />
              <mxPoint x="630" y="80" />
            </Array>
          </mxGeometry>
        </mxCell>
        <mxCell id="QJG5FulogUUSZnAcrw5h-188" value="1..*" style="edgeLabel;resizable=0;html=1;align=left;verticalAlign=bottom;" connectable="0" vertex="1" parent="QJG5FulogUUSZnAcrw5h-187">
          <mxGeometry x="-1" relative="1" as="geometry">
            <mxPoint as="offset" />
          </mxGeometry>
        </mxCell>
        <mxCell id="QJG5FulogUUSZnAcrw5h-189" value="1..*" style="edgeLabel;resizable=0;html=1;align=right;verticalAlign=bottom;" connectable="0" vertex="1" parent="QJG5FulogUUSZnAcrw5h-187">
          <mxGeometry x="1" relative="1" as="geometry">
            <mxPoint x="30" y="20" as="offset" />
          </mxGeometry>
        </mxCell>
        <mxCell id="QJG5FulogUUSZnAcrw5h-192" value="" style="endArrow=none;html=1;edgeStyle=orthogonalEdgeStyle;rounded=0;strokeColor=#FFCCE6;exitX=0;exitY=1;exitDx=0;exitDy=0;entryX=0.75;entryY=1;entryDx=0;entryDy=0;" edge="1" parent="WIyWlLk6GJQsqaUBKTNV-1" source="QJG5FulogUUSZnAcrw5h-28" target="QJG5FulogUUSZnAcrw5h-21">
          <mxGeometry relative="1" as="geometry">
            <mxPoint x="660" y="445" as="sourcePoint" />
            <mxPoint x="610" y="100" as="targetPoint" />
            <Array as="points">
              <mxPoint x="480" y="575" />
              <mxPoint x="480" y="240" />
              <mxPoint x="585" y="240" />
            </Array>
          </mxGeometry>
        </mxCell>
        <mxCell id="QJG5FulogUUSZnAcrw5h-193" value="1..*" style="edgeLabel;resizable=0;html=1;align=left;verticalAlign=bottom;" connectable="0" vertex="1" parent="QJG5FulogUUSZnAcrw5h-192">
          <mxGeometry x="-1" relative="1" as="geometry">
            <mxPoint x="-30" y="15" as="offset" />
          </mxGeometry>
        </mxCell>
        <mxCell id="QJG5FulogUUSZnAcrw5h-194" value="1..*" style="edgeLabel;resizable=0;html=1;align=right;verticalAlign=bottom;" connectable="0" vertex="1" parent="QJG5FulogUUSZnAcrw5h-192">
          <mxGeometry x="1" relative="1" as="geometry">
            <mxPoint x="10" y="40" as="offset" />
          </mxGeometry>
        </mxCell>
        <mxCell id="QJG5FulogUUSZnAcrw5h-195" value="" style="endArrow=none;html=1;edgeStyle=orthogonalEdgeStyle;rounded=0;strokeColor=#67AB9F;exitX=1;exitY=0;exitDx=0;exitDy=0;" edge="1" parent="WIyWlLk6GJQsqaUBKTNV-1" source="QJG5FulogUUSZnAcrw5h-23">
          <mxGeometry relative="1" as="geometry">
            <mxPoint x="398" y="140" as="sourcePoint" />
            <mxPoint x="440" y="140" as="targetPoint" />
            <Array as="points">
              <mxPoint x="440" y="130" />
              <mxPoint x="440" y="140" />
            </Array>
          </mxGeometry>
        </mxCell>
        <mxCell id="QJG5FulogUUSZnAcrw5h-196" value="1" style="edgeLabel;resizable=0;html=1;align=left;verticalAlign=bottom;" connectable="0" vertex="1" parent="QJG5FulogUUSZnAcrw5h-195">
          <mxGeometry x="-1" relative="1" as="geometry">
            <mxPoint x="3" y="10" as="offset" />
          </mxGeometry>
        </mxCell>
        <mxCell id="QJG5FulogUUSZnAcrw5h-197" value="1" style="edgeLabel;resizable=0;html=1;align=right;verticalAlign=bottom;" connectable="0" vertex="1" parent="QJG5FulogUUSZnAcrw5h-195">
          <mxGeometry x="1" relative="1" as="geometry">
            <mxPoint x="10" as="offset" />
          </mxGeometry>
        </mxCell>
        <mxCell id="QJG5FulogUUSZnAcrw5h-200" value="" style="endArrow=none;html=1;edgeStyle=orthogonalEdgeStyle;rounded=0;strokeColor=#67AB9F;exitX=1;exitY=0.75;exitDx=0;exitDy=0;entryX=0.889;entryY=0;entryDx=0;entryDy=0;entryPerimeter=0;" edge="1" parent="WIyWlLk6GJQsqaUBKTNV-1" source="QJG5FulogUUSZnAcrw5h-22" target="QJG5FulogUUSZnAcrw5h-24">
          <mxGeometry relative="1" as="geometry">
            <mxPoint x="420" y="140" as="sourcePoint" />
            <mxPoint x="450" y="150" as="targetPoint" />
            <Array as="points">
              <mxPoint x="690" y="163" />
            </Array>
          </mxGeometry>
        </mxCell>
        <mxCell id="QJG5FulogUUSZnAcrw5h-201" value="1" style="edgeLabel;resizable=0;html=1;align=left;verticalAlign=bottom;" connectable="0" vertex="1" parent="QJG5FulogUUSZnAcrw5h-200">
          <mxGeometry x="-1" relative="1" as="geometry">
            <mxPoint x="3" y="10" as="offset" />
          </mxGeometry>
        </mxCell>
        <mxCell id="QJG5FulogUUSZnAcrw5h-202" value="0..*" style="edgeLabel;resizable=0;html=1;align=right;verticalAlign=bottom;" connectable="0" vertex="1" parent="QJG5FulogUUSZnAcrw5h-200">
          <mxGeometry x="1" relative="1" as="geometry">
            <mxPoint x="10" y="-10" as="offset" />
          </mxGeometry>
        </mxCell>
        <mxCell id="QJG5FulogUUSZnAcrw5h-203" value="" style="endArrow=none;html=1;edgeStyle=orthogonalEdgeStyle;rounded=0;strokeColor=#67AB9F;exitX=1;exitY=1;exitDx=0;exitDy=0;entryX=0.279;entryY=-0.002;entryDx=0;entryDy=0;entryPerimeter=0;" edge="1" parent="WIyWlLk6GJQsqaUBKTNV-1" source="QJG5FulogUUSZnAcrw5h-22" target="QJG5FulogUUSZnAcrw5h-25">
          <mxGeometry relative="1" as="geometry">
            <mxPoint x="530" y="173" as="sourcePoint" />
            <mxPoint x="700" y="230" as="targetPoint" />
            <Array as="points">
              <mxPoint x="520" y="310" />
              <mxPoint x="755" y="310" />
            </Array>
          </mxGeometry>
        </mxCell>
        <mxCell id="QJG5FulogUUSZnAcrw5h-204" value="1" style="edgeLabel;resizable=0;html=1;align=left;verticalAlign=bottom;" connectable="0" vertex="1" parent="QJG5FulogUUSZnAcrw5h-203">
          <mxGeometry x="-1" relative="1" as="geometry">
            <mxPoint x="-10" y="10" as="offset" />
          </mxGeometry>
        </mxCell>
        <mxCell id="QJG5FulogUUSZnAcrw5h-205" value="0..*" style="edgeLabel;resizable=0;html=1;align=right;verticalAlign=bottom;" connectable="0" vertex="1" parent="QJG5FulogUUSZnAcrw5h-203">
          <mxGeometry x="1" relative="1" as="geometry">
            <mxPoint x="10" as="offset" />
          </mxGeometry>
        </mxCell>
        <mxCell id="QJG5FulogUUSZnAcrw5h-206" value="" style="endArrow=none;html=1;edgeStyle=orthogonalEdgeStyle;rounded=0;strokeColor=#67AB9F;exitX=0.541;exitY=0.99;exitDx=0;exitDy=0;exitPerimeter=0;entryX=0;entryY=0;entryDx=0;entryDy=0;" edge="1" parent="WIyWlLk6GJQsqaUBKTNV-1" source="QJG5FulogUUSZnAcrw5h-22" target="QJG5FulogUUSZnAcrw5h-26">
          <mxGeometry relative="1" as="geometry">
            <mxPoint x="530" y="180" as="sourcePoint" />
            <mxPoint x="580" y="430" as="targetPoint" />
            <Array as="points">
              <mxPoint x="475" y="170" />
              <mxPoint x="475" y="320" />
              <mxPoint x="580" y="320" />
            </Array>
          </mxGeometry>
        </mxCell>
        <mxCell id="QJG5FulogUUSZnAcrw5h-207" value="1" style="edgeLabel;resizable=0;html=1;align=left;verticalAlign=bottom;" connectable="0" vertex="1" parent="QJG5FulogUUSZnAcrw5h-206">
          <mxGeometry x="-1" relative="1" as="geometry">
            <mxPoint x="-10" y="10" as="offset" />
          </mxGeometry>
        </mxCell>
        <mxCell id="QJG5FulogUUSZnAcrw5h-208" value="1..*" style="edgeLabel;resizable=0;html=1;align=right;verticalAlign=bottom;" connectable="0" vertex="1" parent="QJG5FulogUUSZnAcrw5h-206">
          <mxGeometry x="1" relative="1" as="geometry">
            <mxPoint x="10" y="-25" as="offset" />
          </mxGeometry>
        </mxCell>
        <mxCell id="QJG5FulogUUSZnAcrw5h-209" value="" style="endArrow=none;html=1;edgeStyle=orthogonalEdgeStyle;rounded=0;strokeColor=#67AB9F;exitX=0;exitY=1.042;exitDx=0;exitDy=0;exitPerimeter=0;entryX=0;entryY=1;entryDx=0;entryDy=0;" edge="1" parent="WIyWlLk6GJQsqaUBKTNV-1" source="QJG5FulogUUSZnAcrw5h-22" target="QJG5FulogUUSZnAcrw5h-27">
          <mxGeometry relative="1" as="geometry">
            <mxPoint x="489" y="180" as="sourcePoint" />
            <mxPoint x="590" y="445" as="targetPoint" />
            <Array as="points">
              <mxPoint x="430" y="520" />
            </Array>
          </mxGeometry>
        </mxCell>
        <mxCell id="QJG5FulogUUSZnAcrw5h-210" value="1" style="edgeLabel;resizable=0;html=1;align=left;verticalAlign=bottom;" connectable="0" vertex="1" parent="QJG5FulogUUSZnAcrw5h-209">
          <mxGeometry x="-1" relative="1" as="geometry">
            <mxPoint x="-10" y="9" as="offset" />
          </mxGeometry>
        </mxCell>
        <mxCell id="QJG5FulogUUSZnAcrw5h-211" value="1..*" style="edgeLabel;resizable=0;html=1;align=right;verticalAlign=bottom;" connectable="0" vertex="1" parent="QJG5FulogUUSZnAcrw5h-209">
          <mxGeometry x="1" relative="1" as="geometry">
            <mxPoint x="10" y="-25" as="offset" />
          </mxGeometry>
        </mxCell>
        <mxCell id="QJG5FulogUUSZnAcrw5h-212" value="" style="endArrow=none;html=1;edgeStyle=orthogonalEdgeStyle;rounded=0;strokeColor=#67AB9F;exitX=0;exitY=0.5;exitDx=0;exitDy=0;entryX=0;entryY=0;entryDx=0;entryDy=0;" edge="1" parent="WIyWlLk6GJQsqaUBKTNV-1" source="QJG5FulogUUSZnAcrw5h-22" target="QJG5FulogUUSZnAcrw5h-29">
          <mxGeometry relative="1" as="geometry">
            <mxPoint x="440" y="181" as="sourcePoint" />
            <mxPoint x="590" y="530" as="targetPoint" />
            <Array as="points">
              <mxPoint x="420" y="155" />
              <mxPoint x="420" y="540" />
              <mxPoint x="430" y="540" />
            </Array>
          </mxGeometry>
        </mxCell>
        <mxCell id="QJG5FulogUUSZnAcrw5h-213" value="1" style="edgeLabel;resizable=0;html=1;align=left;verticalAlign=bottom;" connectable="0" vertex="1" parent="QJG5FulogUUSZnAcrw5h-212">
          <mxGeometry x="-1" relative="1" as="geometry">
            <mxPoint x="-10" y="9" as="offset" />
          </mxGeometry>
        </mxCell>
        <mxCell id="QJG5FulogUUSZnAcrw5h-214" value="1..*" style="edgeLabel;resizable=0;html=1;align=right;verticalAlign=bottom;" connectable="0" vertex="1" parent="QJG5FulogUUSZnAcrw5h-212">
          <mxGeometry x="1" relative="1" as="geometry">
            <mxPoint x="10" as="offset" />
          </mxGeometry>
        </mxCell>
        <mxCell id="QJG5FulogUUSZnAcrw5h-215" value="" style="endArrow=none;html=1;edgeStyle=orthogonalEdgeStyle;rounded=0;strokeColor=#67AB9F;exitX=0.001;exitY=0.138;exitDx=0;exitDy=0;exitPerimeter=0;" edge="1" parent="WIyWlLk6GJQsqaUBKTNV-1" source="QJG5FulogUUSZnAcrw5h-22">
          <mxGeometry relative="1" as="geometry">
            <mxPoint x="419.64" y="144.04999999999998" as="sourcePoint" />
            <mxPoint x="330" y="680" as="targetPoint" />
            <Array as="points">
              <mxPoint x="410" y="144" />
              <mxPoint x="410" y="270" />
              <mxPoint x="350" y="270" />
              <mxPoint x="350" y="560" />
              <mxPoint x="330" y="560" />
            </Array>
          </mxGeometry>
        </mxCell>
        <mxCell id="QJG5FulogUUSZnAcrw5h-216" value="1" style="edgeLabel;resizable=0;html=1;align=left;verticalAlign=bottom;" connectable="0" vertex="1" parent="QJG5FulogUUSZnAcrw5h-215">
          <mxGeometry x="-1" relative="1" as="geometry">
            <mxPoint x="-10" y="9" as="offset" />
          </mxGeometry>
        </mxCell>
        <mxCell id="QJG5FulogUUSZnAcrw5h-217" value="1..*" style="edgeLabel;resizable=0;html=1;align=right;verticalAlign=bottom;" connectable="0" vertex="1" parent="QJG5FulogUUSZnAcrw5h-215">
          <mxGeometry x="1" relative="1" as="geometry">
            <mxPoint as="offset" />
          </mxGeometry>
        </mxCell>
        <mxCell id="QJG5FulogUUSZnAcrw5h-218" value="" style="endArrow=none;html=1;edgeStyle=orthogonalEdgeStyle;rounded=0;strokeColor=#CC6600;exitX=0.25;exitY=1;exitDx=0;exitDy=0;entryX=0.34;entryY=1.005;entryDx=0;entryDy=0;entryPerimeter=0;" edge="1" parent="WIyWlLk6GJQsqaUBKTNV-1" source="QJG5FulogUUSZnAcrw5h-23" target="QJG5FulogUUSZnAcrw5h-24">
          <mxGeometry relative="1" as="geometry">
            <mxPoint x="260" y="259" as="sourcePoint" />
            <mxPoint x="640" y="290" as="targetPoint" />
            <Array as="points">
              <mxPoint x="340" y="160" />
              <mxPoint x="340" y="290" />
              <mxPoint x="640" y="290" />
              <mxPoint x="640" y="260" />
            </Array>
          </mxGeometry>
        </mxCell>
        <mxCell id="QJG5FulogUUSZnAcrw5h-219" value="1" style="edgeLabel;resizable=0;html=1;align=left;verticalAlign=bottom;" connectable="0" vertex="1" parent="QJG5FulogUUSZnAcrw5h-218">
          <mxGeometry x="-1" relative="1" as="geometry">
            <mxPoint y="10" as="offset" />
          </mxGeometry>
        </mxCell>
        <mxCell id="QJG5FulogUUSZnAcrw5h-220" value="0..*" style="edgeLabel;resizable=0;html=1;align=right;verticalAlign=bottom;" connectable="0" vertex="1" parent="QJG5FulogUUSZnAcrw5h-218">
          <mxGeometry x="1" relative="1" as="geometry">
            <mxPoint x="12" y="20" as="offset" />
          </mxGeometry>
        </mxCell>
        <mxCell id="QJG5FulogUUSZnAcrw5h-221" value="" style="endArrow=none;html=1;edgeStyle=orthogonalEdgeStyle;rounded=0;strokeColor=#CC6600;exitX=0.11;exitY=1.014;exitDx=0;exitDy=0;entryX=0.111;entryY=0;entryDx=0;entryDy=0;entryPerimeter=0;exitPerimeter=0;" edge="1" parent="WIyWlLk6GJQsqaUBKTNV-1" source="QJG5FulogUUSZnAcrw5h-23" target="QJG5FulogUUSZnAcrw5h-25">
          <mxGeometry relative="1" as="geometry">
            <mxPoint x="343" y="170" as="sourcePoint" />
            <mxPoint x="651" y="270" as="targetPoint" />
            <Array as="points">
              <mxPoint x="320" y="300" />
              <mxPoint x="740" y="300" />
            </Array>
          </mxGeometry>
        </mxCell>
        <mxCell id="QJG5FulogUUSZnAcrw5h-222" value="1" style="edgeLabel;resizable=0;html=1;align=left;verticalAlign=bottom;" connectable="0" vertex="1" parent="QJG5FulogUUSZnAcrw5h-221">
          <mxGeometry x="-1" relative="1" as="geometry">
            <mxPoint x="-10" y="10" as="offset" />
          </mxGeometry>
        </mxCell>
        <mxCell id="QJG5FulogUUSZnAcrw5h-223" value="0..*" style="edgeLabel;resizable=0;html=1;align=right;verticalAlign=bottom;" connectable="0" vertex="1" parent="QJG5FulogUUSZnAcrw5h-221">
          <mxGeometry x="1" relative="1" as="geometry">
            <mxPoint y="-10" as="offset" />
          </mxGeometry>
        </mxCell>
        <mxCell id="QJG5FulogUUSZnAcrw5h-224" value="" style="endArrow=none;html=1;edgeStyle=orthogonalEdgeStyle;rounded=0;strokeColor=#CC6600;exitX=0.665;exitY=1.006;exitDx=0;exitDy=0;entryX=0.994;entryY=0.113;entryDx=0;entryDy=0;exitPerimeter=0;entryPerimeter=0;" edge="1" parent="WIyWlLk6GJQsqaUBKTNV-1" source="QJG5FulogUUSZnAcrw5h-23" target="QJG5FulogUUSZnAcrw5h-26">
          <mxGeometry relative="1" as="geometry">
            <mxPoint x="330" y="170" as="sourcePoint" />
            <mxPoint x="750" y="350" as="targetPoint" />
            <Array as="points">
              <mxPoint x="370" y="330" />
              <mxPoint x="700" y="330" />
              <mxPoint x="700" y="430" />
              <mxPoint x="669" y="430" />
            </Array>
          </mxGeometry>
        </mxCell>
        <mxCell id="QJG5FulogUUSZnAcrw5h-225" value="1" style="edgeLabel;resizable=0;html=1;align=left;verticalAlign=bottom;" connectable="0" vertex="1" parent="QJG5FulogUUSZnAcrw5h-224">
          <mxGeometry x="-1" relative="1" as="geometry">
            <mxPoint x="-10" y="10" as="offset" />
          </mxGeometry>
        </mxCell>
        <mxCell id="QJG5FulogUUSZnAcrw5h-226" value="1..*" style="edgeLabel;resizable=0;html=1;align=right;verticalAlign=bottom;" connectable="0" vertex="1" parent="QJG5FulogUUSZnAcrw5h-224">
          <mxGeometry x="1" relative="1" as="geometry">
            <mxPoint x="50" y="-2" as="offset" />
          </mxGeometry>
        </mxCell>
        <mxCell id="QJG5FulogUUSZnAcrw5h-227" value="" style="endArrow=none;html=1;edgeStyle=orthogonalEdgeStyle;rounded=0;strokeColor=#CC6600;exitX=0;exitY=0.5;exitDx=0;exitDy=0;entryX=0.224;entryY=1.027;entryDx=0;entryDy=0;entryPerimeter=0;" edge="1" parent="WIyWlLk6GJQsqaUBKTNV-1" source="QJG5FulogUUSZnAcrw5h-23" target="QJG5FulogUUSZnAcrw5h-27">
          <mxGeometry relative="1" as="geometry">
            <mxPoint x="330" y="170" as="sourcePoint" />
            <mxPoint x="750" y="350" as="targetPoint" />
            <Array as="points">
              <mxPoint x="290" y="145" />
              <mxPoint x="290" y="540" />
              <mxPoint x="600" y="540" />
            </Array>
          </mxGeometry>
        </mxCell>
        <mxCell id="QJG5FulogUUSZnAcrw5h-228" value="1" style="edgeLabel;resizable=0;html=1;align=left;verticalAlign=bottom;" connectable="0" vertex="1" parent="QJG5FulogUUSZnAcrw5h-227">
          <mxGeometry x="-1" relative="1" as="geometry">
            <mxPoint x="-10" y="10" as="offset" />
          </mxGeometry>
        </mxCell>
        <mxCell id="QJG5FulogUUSZnAcrw5h-229" value="1..*" style="edgeLabel;resizable=0;html=1;align=right;verticalAlign=bottom;" connectable="0" vertex="1" parent="QJG5FulogUUSZnAcrw5h-227">
          <mxGeometry x="1" relative="1" as="geometry">
            <mxPoint x="20" y="9" as="offset" />
          </mxGeometry>
        </mxCell>
        <mxCell id="QJG5FulogUUSZnAcrw5h-230" value="" style="endArrow=none;html=1;edgeStyle=orthogonalEdgeStyle;rounded=0;strokeColor=#CC6600;exitX=0;exitY=0;exitDx=0;exitDy=0;entryX=0.224;entryY=0.957;entryDx=0;entryDy=0;entryPerimeter=0;" edge="1" parent="WIyWlLk6GJQsqaUBKTNV-1" source="QJG5FulogUUSZnAcrw5h-23" target="QJG5FulogUUSZnAcrw5h-28">
          <mxGeometry relative="1" as="geometry">
            <mxPoint x="320" y="155" as="sourcePoint" />
            <mxPoint x="610" y="580" as="targetPoint" />
            <Array as="points">
              <mxPoint x="280" y="130" />
              <mxPoint x="280" y="590" />
              <mxPoint x="600" y="590" />
              <mxPoint x="600" y="574" />
            </Array>
          </mxGeometry>
        </mxCell>
        <mxCell id="QJG5FulogUUSZnAcrw5h-231" value="1" style="edgeLabel;resizable=0;html=1;align=left;verticalAlign=bottom;" connectable="0" vertex="1" parent="QJG5FulogUUSZnAcrw5h-230">
          <mxGeometry x="-1" relative="1" as="geometry">
            <mxPoint as="offset" />
          </mxGeometry>
        </mxCell>
        <mxCell id="QJG5FulogUUSZnAcrw5h-232" value="1..*" style="edgeLabel;resizable=0;html=1;align=right;verticalAlign=bottom;" connectable="0" vertex="1" parent="QJG5FulogUUSZnAcrw5h-230">
          <mxGeometry x="1" relative="1" as="geometry">
            <mxPoint x="10" y="26" as="offset" />
          </mxGeometry>
        </mxCell>
        <mxCell id="QJG5FulogUUSZnAcrw5h-233" value="" style="endArrow=none;html=1;edgeStyle=orthogonalEdgeStyle;rounded=0;strokeColor=#FF99FF;exitX=0.822;exitY=0.022;exitDx=0;exitDy=0;exitPerimeter=0;" edge="1" parent="WIyWlLk6GJQsqaUBKTNV-1" source="QJG5FulogUUSZnAcrw5h-26">
          <mxGeometry relative="1" as="geometry">
            <mxPoint x="670" y="330" as="sourcePoint" />
            <mxPoint x="655" y="260" as="targetPoint" />
            <Array as="points">
              <mxPoint x="655" y="436" />
              <mxPoint x="655" y="260" />
            </Array>
          </mxGeometry>
        </mxCell>
        <mxCell id="QJG5FulogUUSZnAcrw5h-234" value="1..*" style="edgeLabel;resizable=0;html=1;align=left;verticalAlign=bottom;" connectable="0" vertex="1" parent="QJG5FulogUUSZnAcrw5h-233">
          <mxGeometry x="-1" relative="1" as="geometry">
            <mxPoint x="-10" y="-25" as="offset" />
          </mxGeometry>
        </mxCell>
        <mxCell id="QJG5FulogUUSZnAcrw5h-235" value="1" style="edgeLabel;resizable=0;html=1;align=right;verticalAlign=bottom;" connectable="0" vertex="1" parent="QJG5FulogUUSZnAcrw5h-233">
          <mxGeometry x="1" relative="1" as="geometry">
            <mxPoint x="10" y="19" as="offset" />
          </mxGeometry>
        </mxCell>
        <mxCell id="QJG5FulogUUSZnAcrw5h-236" value="" style="endArrow=none;html=1;edgeStyle=orthogonalEdgeStyle;rounded=0;strokeColor=#FF99FF;exitX=1;exitY=0;exitDx=0;exitDy=0;entryX=0.647;entryY=1.029;entryDx=0;entryDy=0;entryPerimeter=0;" edge="1" parent="WIyWlLk6GJQsqaUBKTNV-1" source="QJG5FulogUUSZnAcrw5h-27" target="QJG5FulogUUSZnAcrw5h-24">
          <mxGeometry relative="1" as="geometry">
            <mxPoint x="664" y="446" as="sourcePoint" />
            <mxPoint x="665" y="270" as="targetPoint" />
            <Array as="points">
              <mxPoint x="680" y="490" />
              <mxPoint x="680" y="270" />
              <mxPoint x="668" y="270" />
            </Array>
          </mxGeometry>
        </mxCell>
        <mxCell id="QJG5FulogUUSZnAcrw5h-237" value="1..*" style="edgeLabel;resizable=0;html=1;align=left;verticalAlign=bottom;" connectable="0" vertex="1" parent="QJG5FulogUUSZnAcrw5h-236">
          <mxGeometry x="-1" relative="1" as="geometry">
            <mxPoint x="-10" as="offset" />
          </mxGeometry>
        </mxCell>
        <mxCell id="QJG5FulogUUSZnAcrw5h-238" value="1" style="edgeLabel;resizable=0;html=1;align=right;verticalAlign=bottom;" connectable="0" vertex="1" parent="QJG5FulogUUSZnAcrw5h-236">
          <mxGeometry x="1" relative="1" as="geometry">
            <mxPoint x="10" y="19" as="offset" />
          </mxGeometry>
        </mxCell>
        <mxCell id="QJG5FulogUUSZnAcrw5h-239" value="" style="endArrow=none;html=1;edgeStyle=orthogonalEdgeStyle;rounded=0;strokeColor=#FF99FF;entryX=0.894;entryY=0.99;entryDx=0;entryDy=0;entryPerimeter=0;" edge="1" parent="WIyWlLk6GJQsqaUBKTNV-1" target="QJG5FulogUUSZnAcrw5h-24">
          <mxGeometry relative="1" as="geometry">
            <mxPoint x="670" y="550" as="sourcePoint" />
            <mxPoint x="678" y="271" as="targetPoint" />
            <Array as="points">
              <mxPoint x="670" y="530" />
              <mxPoint x="690" y="530" />
              <mxPoint x="690" y="260" />
            </Array>
          </mxGeometry>
        </mxCell>
        <mxCell id="QJG5FulogUUSZnAcrw5h-240" value="1..*" style="edgeLabel;resizable=0;html=1;align=left;verticalAlign=bottom;" connectable="0" vertex="1" parent="QJG5FulogUUSZnAcrw5h-239">
          <mxGeometry x="-1" relative="1" as="geometry">
            <mxPoint x="-20" as="offset" />
          </mxGeometry>
        </mxCell>
        <mxCell id="QJG5FulogUUSZnAcrw5h-241" value="1" style="edgeLabel;resizable=0;html=1;align=right;verticalAlign=bottom;" connectable="0" vertex="1" parent="QJG5FulogUUSZnAcrw5h-239">
          <mxGeometry x="1" relative="1" as="geometry">
            <mxPoint x="10" y="19" as="offset" />
          </mxGeometry>
        </mxCell>
        <mxCell id="QJG5FulogUUSZnAcrw5h-242" value="" style="endArrow=none;html=1;edgeStyle=orthogonalEdgeStyle;rounded=0;strokeColor=#FF99FF;entryX=0.106;entryY=1.025;entryDx=0;entryDy=0;entryPerimeter=0;exitX=1;exitY=1;exitDx=0;exitDy=0;" edge="1" parent="WIyWlLk6GJQsqaUBKTNV-1" source="QJG5FulogUUSZnAcrw5h-29" target="QJG5FulogUUSZnAcrw5h-24">
          <mxGeometry relative="1" as="geometry">
            <mxPoint x="480" y="440" as="sourcePoint" />
            <mxPoint x="665" y="270" as="targetPoint" />
            <Array as="points">
              <mxPoint x="580" y="720" />
              <mxPoint x="580" y="620" />
              <mxPoint x="460" y="620" />
              <mxPoint x="460" y="270" />
              <mxPoint x="620" y="270" />
            </Array>
          </mxGeometry>
        </mxCell>
        <mxCell id="QJG5FulogUUSZnAcrw5h-243" value="1" style="edgeLabel;resizable=0;html=1;align=left;verticalAlign=bottom;" connectable="0" vertex="1" parent="QJG5FulogUUSZnAcrw5h-242">
          <mxGeometry x="-1" relative="1" as="geometry">
            <mxPoint x="10" y="10" as="offset" />
          </mxGeometry>
        </mxCell>
        <mxCell id="QJG5FulogUUSZnAcrw5h-244" value="1..*" style="edgeLabel;resizable=0;html=1;align=right;verticalAlign=bottom;" connectable="0" vertex="1" parent="QJG5FulogUUSZnAcrw5h-242">
          <mxGeometry x="1" relative="1" as="geometry">
            <mxPoint x="10" y="19" as="offset" />
          </mxGeometry>
        </mxCell>
        <mxCell id="QJG5FulogUUSZnAcrw5h-245" value="" style="endArrow=none;html=1;edgeStyle=orthogonalEdgeStyle;rounded=0;strokeColor=#FF99FF;entryX=0;entryY=0;entryDx=0;entryDy=0;exitX=0.696;exitY=0.025;exitDx=0;exitDy=0;exitPerimeter=0;" edge="1" parent="WIyWlLk6GJQsqaUBKTNV-1" source="QJG5FulogUUSZnAcrw5h-30" target="QJG5FulogUUSZnAcrw5h-24">
          <mxGeometry relative="1" as="geometry">
            <mxPoint x="530" y="730" as="sourcePoint" />
            <mxPoint x="630" y="271" as="targetPoint" />
            <Array as="points">
              <mxPoint x="368" y="650" />
              <mxPoint x="360" y="650" />
              <mxPoint x="360" y="310" />
              <mxPoint x="450" y="310" />
              <mxPoint x="450" y="220" />
            </Array>
          </mxGeometry>
        </mxCell>
        <mxCell id="QJG5FulogUUSZnAcrw5h-246" value="1..*" style="edgeLabel;resizable=0;html=1;align=left;verticalAlign=bottom;" connectable="0" vertex="1" parent="QJG5FulogUUSZnAcrw5h-245">
          <mxGeometry x="-1" relative="1" as="geometry">
            <mxPoint x="-18" y="-21" as="offset" />
          </mxGeometry>
        </mxCell>
        <mxCell id="QJG5FulogUUSZnAcrw5h-247" value="1..*" style="edgeLabel;resizable=0;html=1;align=right;verticalAlign=bottom;" connectable="0" vertex="1" parent="QJG5FulogUUSZnAcrw5h-245">
          <mxGeometry x="1" relative="1" as="geometry">
            <mxPoint x="10" y="19" as="offset" />
          </mxGeometry>
        </mxCell>
        <mxCell id="QJG5FulogUUSZnAcrw5h-248" value="" style="endArrow=none;html=1;edgeStyle=orthogonalEdgeStyle;rounded=0;strokeColor=#99CCFF;exitX=1;exitY=0.25;exitDx=0;exitDy=0;entryX=0.5;entryY=1;entryDx=0;entryDy=0;" edge="1" parent="WIyWlLk6GJQsqaUBKTNV-1" source="QJG5FulogUUSZnAcrw5h-26" target="QJG5FulogUUSZnAcrw5h-25">
          <mxGeometry relative="1" as="geometry">
            <mxPoint x="680" y="500" as="sourcePoint" />
            <mxPoint x="678" y="271" as="targetPoint" />
            <Array as="points">
              <mxPoint x="670" y="440" />
              <mxPoint x="775" y="440" />
            </Array>
          </mxGeometry>
        </mxCell>
        <mxCell id="QJG5FulogUUSZnAcrw5h-249" value="1..*" style="edgeLabel;resizable=0;html=1;align=left;verticalAlign=bottom;" connectable="0" vertex="1" parent="QJG5FulogUUSZnAcrw5h-248">
          <mxGeometry x="-1" relative="1" as="geometry">
            <mxPoint x="50" y="8" as="offset" />
          </mxGeometry>
        </mxCell>
        <mxCell id="QJG5FulogUUSZnAcrw5h-250" value="1" style="edgeLabel;resizable=0;html=1;align=right;verticalAlign=bottom;" connectable="0" vertex="1" parent="QJG5FulogUUSZnAcrw5h-248">
          <mxGeometry x="1" relative="1" as="geometry">
            <mxPoint x="10" y="19" as="offset" />
          </mxGeometry>
        </mxCell>
        <mxCell id="QJG5FulogUUSZnAcrw5h-252" value="" style="endArrow=none;html=1;edgeStyle=orthogonalEdgeStyle;rounded=0;strokeColor=#99CCFF;entryX=0.75;entryY=1;entryDx=0;entryDy=0;exitX=1;exitY=0.75;exitDx=0;exitDy=0;" edge="1" parent="WIyWlLk6GJQsqaUBKTNV-1" source="QJG5FulogUUSZnAcrw5h-27" target="QJG5FulogUUSZnAcrw5h-25">
          <mxGeometry relative="1" as="geometry">
            <mxPoint x="790" y="460" as="sourcePoint" />
            <mxPoint x="785" y="390" as="targetPoint" />
            <Array as="points">
              <mxPoint x="670" y="510" />
              <mxPoint x="680" y="510" />
              <mxPoint x="680" y="570" />
              <mxPoint x="840" y="570" />
              <mxPoint x="840" y="450" />
              <mxPoint x="800" y="450" />
              <mxPoint x="800" y="380" />
            </Array>
          </mxGeometry>
        </mxCell>
        <mxCell id="QJG5FulogUUSZnAcrw5h-253" value="1..*" style="edgeLabel;resizable=0;html=1;align=left;verticalAlign=bottom;" connectable="0" vertex="1" parent="QJG5FulogUUSZnAcrw5h-252">
          <mxGeometry x="-1" relative="1" as="geometry">
            <mxPoint x="-10" y="8" as="offset" />
          </mxGeometry>
        </mxCell>
        <mxCell id="QJG5FulogUUSZnAcrw5h-254" value="1" style="edgeLabel;resizable=0;html=1;align=right;verticalAlign=bottom;" connectable="0" vertex="1" parent="QJG5FulogUUSZnAcrw5h-252">
          <mxGeometry x="1" relative="1" as="geometry">
            <mxPoint x="10" y="19" as="offset" />
          </mxGeometry>
        </mxCell>
        <mxCell id="QJG5FulogUUSZnAcrw5h-255" value="" style="endArrow=none;html=1;edgeStyle=orthogonalEdgeStyle;rounded=0;strokeColor=#99CCFF;entryX=0.98;entryY=0.997;entryDx=0;entryDy=0;exitX=0.894;exitY=0.987;exitDx=0;exitDy=0;entryPerimeter=0;exitPerimeter=0;" edge="1" parent="WIyWlLk6GJQsqaUBKTNV-1" source="QJG5FulogUUSZnAcrw5h-28" target="QJG5FulogUUSZnAcrw5h-25">
          <mxGeometry relative="1" as="geometry">
            <mxPoint x="680" y="580.88" as="sourcePoint" />
            <mxPoint x="818.4700000000003" y="440" as="targetPoint" />
            <Array as="points">
              <mxPoint x="661" y="581" />
              <mxPoint x="850" y="581" />
              <mxPoint x="850" y="440" />
              <mxPoint x="818" y="440" />
            </Array>
          </mxGeometry>
        </mxCell>
        <mxCell id="QJG5FulogUUSZnAcrw5h-256" value="1..*" style="edgeLabel;resizable=0;html=1;align=left;verticalAlign=bottom;" connectable="0" vertex="1" parent="QJG5FulogUUSZnAcrw5h-255">
          <mxGeometry x="-1" relative="1" as="geometry">
            <mxPoint x="10" y="15" as="offset" />
          </mxGeometry>
        </mxCell>
        <mxCell id="QJG5FulogUUSZnAcrw5h-257" value="1" style="edgeLabel;resizable=0;html=1;align=right;verticalAlign=bottom;" connectable="0" vertex="1" parent="QJG5FulogUUSZnAcrw5h-255">
          <mxGeometry x="1" relative="1" as="geometry">
            <mxPoint x="10" y="19" as="offset" />
          </mxGeometry>
        </mxCell>
        <mxCell id="QJG5FulogUUSZnAcrw5h-259" value="" style="endArrow=none;html=1;edgeStyle=orthogonalEdgeStyle;rounded=0;strokeColor=#99CCFF;entryX=0.977;entryY=0.726;entryDx=0;entryDy=0;entryPerimeter=0;exitX=0.75;exitY=1;exitDx=0;exitDy=0;" edge="1" parent="WIyWlLk6GJQsqaUBKTNV-1" source="QJG5FulogUUSZnAcrw5h-29" target="QJG5FulogUUSZnAcrw5h-25">
          <mxGeometry relative="1" as="geometry">
            <mxPoint x="500" y="740" as="sourcePoint" />
            <mxPoint x="828" y="390" as="targetPoint" />
            <Array as="points">
              <mxPoint x="498" y="730" />
              <mxPoint x="670" y="730" />
              <mxPoint x="670" y="591" />
              <mxPoint x="860" y="591" />
              <mxPoint x="860" y="370" />
              <mxPoint x="821" y="370" />
            </Array>
          </mxGeometry>
        </mxCell>
        <mxCell id="QJG5FulogUUSZnAcrw5h-260" value="1" style="edgeLabel;resizable=0;html=1;align=left;verticalAlign=bottom;" connectable="0" vertex="1" parent="QJG5FulogUUSZnAcrw5h-259">
          <mxGeometry x="-1" relative="1" as="geometry">
            <mxPoint x="-7" y="20" as="offset" />
          </mxGeometry>
        </mxCell>
        <mxCell id="QJG5FulogUUSZnAcrw5h-261" value="1..*" style="edgeLabel;resizable=0;html=1;align=right;verticalAlign=bottom;" connectable="0" vertex="1" parent="QJG5FulogUUSZnAcrw5h-259">
          <mxGeometry x="1" relative="1" as="geometry">
            <mxPoint x="32" y="11" as="offset" />
          </mxGeometry>
        </mxCell>
        <mxCell id="QJG5FulogUUSZnAcrw5h-262" value="" style="endArrow=none;html=1;edgeStyle=orthogonalEdgeStyle;rounded=0;strokeColor=#99CCFF;entryX=1.017;entryY=0.344;entryDx=0;entryDy=0;entryPerimeter=0;exitX=0.378;exitY=1.009;exitDx=0;exitDy=0;exitPerimeter=0;" edge="1" parent="WIyWlLk6GJQsqaUBKTNV-1" source="QJG5FulogUUSZnAcrw5h-30" target="QJG5FulogUUSZnAcrw5h-25">
          <mxGeometry relative="1" as="geometry">
            <mxPoint x="340" y="740" as="sourcePoint" />
            <mxPoint x="831" y="365" as="targetPoint" />
            <Array as="points">
              <mxPoint x="339" y="740" />
              <mxPoint x="680" y="740" />
              <mxPoint x="680" y="601" />
              <mxPoint x="870" y="601" />
              <mxPoint x="870" y="354" />
            </Array>
          </mxGeometry>
        </mxCell>
        <mxCell id="QJG5FulogUUSZnAcrw5h-263" value="1..*" style="edgeLabel;resizable=0;html=1;align=left;verticalAlign=bottom;" connectable="0" vertex="1" parent="QJG5FulogUUSZnAcrw5h-262">
          <mxGeometry x="-1" relative="1" as="geometry">
            <mxPoint x="-9" y="20" as="offset" />
          </mxGeometry>
        </mxCell>
        <mxCell id="QJG5FulogUUSZnAcrw5h-264" value="1..*" style="edgeLabel;resizable=0;html=1;align=right;verticalAlign=bottom;" connectable="0" vertex="1" parent="QJG5FulogUUSZnAcrw5h-262">
          <mxGeometry x="1" relative="1" as="geometry">
            <mxPoint x="18" y="-4" as="offset" />
          </mxGeometry>
        </mxCell>
        <mxCell id="QJG5FulogUUSZnAcrw5h-274" value="" style="endArrow=none;html=1;edgeStyle=orthogonalEdgeStyle;rounded=0;entryX=0.674;entryY=0.009;entryDx=0;entryDy=0;entryPerimeter=0;exitX=0.674;exitY=1.051;exitDx=0;exitDy=0;exitPerimeter=0;" edge="1" parent="WIyWlLk6GJQsqaUBKTNV-1" source="QJG5FulogUUSZnAcrw5h-26" target="QJG5FulogUUSZnAcrw5h-27">
          <mxGeometry relative="1" as="geometry">
            <mxPoint x="620" y="460" as="sourcePoint" />
            <mxPoint x="700" y="460" as="targetPoint" />
          </mxGeometry>
        </mxCell>
        <mxCell id="QJG5FulogUUSZnAcrw5h-275" value="1..*" style="edgeLabel;resizable=0;html=1;align=left;verticalAlign=bottom;" connectable="0" vertex="1" parent="QJG5FulogUUSZnAcrw5h-274">
          <mxGeometry x="-1" relative="1" as="geometry">
            <mxPoint x="-11" y="3" as="offset" />
          </mxGeometry>
        </mxCell>
        <mxCell id="QJG5FulogUUSZnAcrw5h-276" value="1..*" style="edgeLabel;resizable=0;html=1;align=right;verticalAlign=bottom;" connectable="0" vertex="1" parent="QJG5FulogUUSZnAcrw5h-274">
          <mxGeometry x="1" relative="1" as="geometry">
            <mxPoint x="9" y="10" as="offset" />
          </mxGeometry>
        </mxCell>
        <mxCell id="QJG5FulogUUSZnAcrw5h-277" value="" style="endArrow=none;html=1;edgeStyle=orthogonalEdgeStyle;rounded=0;entryX=0.552;entryY=-0.004;entryDx=0;entryDy=0;entryPerimeter=0;exitX=0.724;exitY=1.07;exitDx=0;exitDy=0;exitPerimeter=0;" edge="1" parent="WIyWlLk6GJQsqaUBKTNV-1" source="QJG5FulogUUSZnAcrw5h-27" target="QJG5FulogUUSZnAcrw5h-28">
          <mxGeometry relative="1" as="geometry">
            <mxPoint x="651" y="477" as="sourcePoint" />
            <mxPoint x="651" y="500" as="targetPoint" />
            <Array as="points">
              <mxPoint x="645" y="532" />
              <mxPoint x="630" y="532" />
              <mxPoint x="630" y="546" />
              <mxPoint x="630" y="546" />
            </Array>
          </mxGeometry>
        </mxCell>
        <mxCell id="QJG5FulogUUSZnAcrw5h-278" value="1..*" style="edgeLabel;resizable=0;html=1;align=left;verticalAlign=bottom;" connectable="0" vertex="1" parent="QJG5FulogUUSZnAcrw5h-277">
          <mxGeometry x="-1" relative="1" as="geometry">
            <mxPoint x="-11" y="8" as="offset" />
          </mxGeometry>
        </mxCell>
        <mxCell id="QJG5FulogUUSZnAcrw5h-279" value="1..*" style="edgeLabel;resizable=0;html=1;align=right;verticalAlign=bottom;" connectable="0" vertex="1" parent="QJG5FulogUUSZnAcrw5h-277">
          <mxGeometry x="1" relative="1" as="geometry">
            <mxPoint x="10" y="4" as="offset" />
          </mxGeometry>
        </mxCell>
        <mxCell id="QJG5FulogUUSZnAcrw5h-283" value="" style="endArrow=none;html=1;edgeStyle=orthogonalEdgeStyle;rounded=0;exitX=1;exitY=0.75;exitDx=0;exitDy=0;entryX=0.726;entryY=1;entryDx=0;entryDy=0;entryPerimeter=0;" edge="1" parent="WIyWlLk6GJQsqaUBKTNV-1" source="QJG5FulogUUSZnAcrw5h-29" target="QJG5FulogUUSZnAcrw5h-28">
          <mxGeometry relative="1" as="geometry">
            <mxPoint x="530" y="710" as="sourcePoint" />
            <mxPoint x="645" y="585" as="targetPoint" />
            <Array as="points">
              <mxPoint x="645" y="710" />
            </Array>
          </mxGeometry>
        </mxCell>
        <mxCell id="QJG5FulogUUSZnAcrw5h-284" value="1..*" style="edgeLabel;resizable=0;html=1;align=left;verticalAlign=bottom;" connectable="0" vertex="1" parent="QJG5FulogUUSZnAcrw5h-283">
          <mxGeometry x="-1" relative="1" as="geometry">
            <mxPoint x="30" y="10" as="offset" />
          </mxGeometry>
        </mxCell>
        <mxCell id="QJG5FulogUUSZnAcrw5h-285" value="1..*" style="edgeLabel;resizable=0;html=1;align=right;verticalAlign=bottom;" connectable="0" vertex="1" parent="QJG5FulogUUSZnAcrw5h-283">
          <mxGeometry x="1" relative="1" as="geometry">
            <mxPoint x="5" y="65" as="offset" />
          </mxGeometry>
        </mxCell>
        <mxCell id="QJG5FulogUUSZnAcrw5h-286" value="" style="endArrow=none;html=1;edgeStyle=orthogonalEdgeStyle;rounded=0;exitX=0.898;exitY=1.04;exitDx=0;exitDy=0;entryX=0.832;entryY=1.009;entryDx=0;entryDy=0;entryPerimeter=0;exitPerimeter=0;" edge="1" parent="WIyWlLk6GJQsqaUBKTNV-1">
          <mxGeometry relative="1" as="geometry">
            <mxPoint x="385.82000000000016" y="721.3299999999999" as="sourcePoint" />
            <mxPoint x="654.8800000000001" y="575" as="targetPoint" />
            <Array as="points">
              <mxPoint x="386" y="749.73" />
              <mxPoint x="655" y="749.73" />
            </Array>
          </mxGeometry>
        </mxCell>
        <mxCell id="QJG5FulogUUSZnAcrw5h-287" value="1..*" style="edgeLabel;resizable=0;html=1;align=left;verticalAlign=bottom;" connectable="0" vertex="1" parent="QJG5FulogUUSZnAcrw5h-286">
          <mxGeometry x="-1" relative="1" as="geometry">
            <mxPoint x="-6" y="10" as="offset" />
          </mxGeometry>
        </mxCell>
        <mxCell id="QJG5FulogUUSZnAcrw5h-288" value="1..*" style="edgeLabel;resizable=0;html=1;align=right;verticalAlign=bottom;" connectable="0" vertex="1" parent="QJG5FulogUUSZnAcrw5h-286">
          <mxGeometry x="1" relative="1" as="geometry">
            <mxPoint x="15" y="45" as="offset" />
          </mxGeometry>
        </mxCell>
      </root>
    </mxGraphModel>
  </diagram>
</mxfile>
